<?xml version="1.0" encoding="utf-8"?>
<!-- Generator: Adobe Illustrator 16.0.0, SVG Export Plug-In . SVG Version: 6.00 Build 0)  -->
<!DOCTYPE svg PUBLIC "-//W3C//DTD SVG 1.1//EN" "http://www.w3.org/Graphics/SVG/1.1/DTD/svg11.dtd">
<svg version="1.1" xmlns="http://www.w3.org/2000/svg" xmlns:xlink="http://www.w3.org/1999/xlink" x="0px" y="0px" width="305.5px"
	 height="117.104px" viewBox="-91.302 0 305.5 117.104" enable-background="new -91.302 0 305.5 117.104" xml:space="preserve">
<g id="Layer_1">
</g>
<g id="Layer_2">
	<g>
		<path fill-rule="evenodd" clip-rule="evenodd" fill="#29282A" d="M40.749,16.006c-0.421-0.273-0.53-0.893-0.311-1.069
			c1.21-0.975,0.687-2.342,0.893-3.522c0.39-2.246,2.005-3.375,3.769-4.409c5.791,0,11.582,0,17.373,0
			c2.834,1.212,4.175,3.361,4.048,6.437c-0.014,0.355-0.066,0.746,0.354,0.941c0.501,0.232,0.698,0.604,0.501,1.129
			c-0.242,0.648-0.782,0.73-1.392,0.724c-1.535-0.018-3.07-0.006-4.61,0.246c2.543,0.147,5.089,0.265,7.628,0.447
			c8.611,0.618,17.045,1.959,25.141,5.214c9.553,3.841,18.462,8.867,27.238,14.172c3.968,2.399,7.894,4.868,11.861,7.269
			c2.983,1.804,6.363,2.125,9.727,2.467c7.85,0.798,15.659,1.91,23.473,3.002c5.915,0.826,11.837,1.613,17.675,2.902
			c1.148,0.254,6.676,1.924,7.813,2.229c0.041,0.586-1.584,0.555-1.654,1.086c3.248,0.874-4.037-1.044-4.355-1.052
			c-4.46-1.068-8.975-1.861-13.507-2.548c-6.111-0.927-12.225-1.846-18.349-2.684c-4.599-0.629-9.185-1.392-13.825-1.674
			c-0.543-0.032-1.148-0.243-1.583,0.319c-0.212-1.012-2.087-2.386-3.195-2.08c-1.212,0.335-2.203-0.071-3.259-0.423
			c0.639-0.647,0.671-1.095-0.276-1.555c-1.106-0.537-2.122-1.264-3.176-1.909c-9.977-6.102-19.881-12.333-30.625-17.061
			c-6.771-2.979-13.721-5.268-21.119-6.148c-6.315-0.752-12.647-1.118-18.993-1.345c-0.637-0.023-1.245-0.21-1.163,0.829
			c0.062,0.792-0.112,1.466,1.147,1.437c3.926-0.094,7.838,0.247,11.75,0.586c8.163,0.707,16.077,2.482,23.708,5.445
			c9.574,3.716,18.076,9.381,26.676,14.857c0.395,0.27,1.208,0.962,1.304,0.852c2.948,1.902,5.891,3.813,8.67,5.96
			c-0.003,0.3-0.006,0.6-0.01,0.898c-0.793-0.821-1.599,0.096-2.435-0.005c-2.78-0.335-5.584-0.487-8.378-0.711
			c-0.411-1.515-1.476-2.417-2.84-3.042c0.724-1.047,0.346-1.938-0.405-2.765c-2.6-2.865-5.872-4.397-9.671-4.916
			c-0.854-0.117-1.142,0.278-1.148,1.012c-0.016,1.748-0.039,3.497,0.006,5.245c0.027,1.024,0.554,1.489,1.672,1.531
			c2.67,0.098,5.336,0.346,8.004,0.533c0.973,3.226-1.461,1.455-2.465,1.811c-0.061-0.229-0.108-0.472-0.402-0.514
			c-0.379-0.054-0.482,0.209-0.562,0.496c-0.192-0.009-0.384-0.017-0.576-0.025c0.061-0.688-0.432-0.923-0.938-1.149
			c-0.873-0.591-1.753-1.314-2.52,0.132l0.018,0.011c-0.229,0.132-0.833,0.058-0.328,0.595c0,0.113,0.001,0.228,0.001,0.341
			c-0.717-0.016-1.434-0.012-2.15-0.049c-6.281-0.33-12.563-0.671-18.844-1.004c-5.155-0.271-10.309-0.542-15.464-0.804
			c-3.593-0.183-7.188-0.35-10.933-0.531c2.154,6.215,2.62,12.473,2.707,18.783c0.029,2.115,0.021,2.107,2.215,2.197
			c0.511,0.02,1.019,0.113,1.529,0.173c-1.36,0.226-2.818-0.408-4.129,0.513c-0.14,0.099-1.274,0.248-1.141-0.775
			c0.893,0.142,0.859-0.427,0.836-1.044c-0.091-2.322-0.111-4.648-0.249-6.968c-0.236-3.974-0.914-7.874-2.099-11.685
			c-0.278-0.892-0.639-1.318-1.7-1.336c-5.42-0.087-10.839-0.279-16.258-0.446c-3.613-0.111-7.225-0.243-10.838-0.364
			C19.98,42.859,9.347,42.511-1.284,42.136c-0.666-0.023-1.015,0.195-1.318,0.773c-1.831,3.474-1.906,6.995-0.342,10.566
			c0.596,1.362,1.24,2.703,1.862,4.053c-0.096,0.432,0.08,0.93-0.315,1.288c-1.558-3.084-3.454-6.017-3.368-9.714
			c0.038-1.645-0.261-3.262,0.881-4.683c0.452-0.563,0.201-1.061-0.176-1.66c-0.398-0.633-0.728-0.523-1.347-0.502
			c-4.261,0.141-8.536,0.41-12.758-0.505c-0.106-0.203-0.214-0.256-0.325-0.003l-0.009,0.007c-0.2,0.002-0.4,0.005-0.601,0.007
			c-0.219-1.74-1.311-2.696-3.259-2.619c-6.87,0.268-13.742,0.048-20.612,0.108c-0.888,0.008-1.746,0.087-2.589,0.354
			c-6.281,0.475-12.583,0.708-18.832,1.575c-1.327-0.06-2.685-0.253-3.738,0.867c-0.247-0.042-0.576,0.002-0.729-0.141
			c-0.51-0.474-1.071-0.715-1.631-0.248c-0.659,0.549-0.214,1.228,0.002,1.83c0.101,0.28,0.326,0.515,0.495,0.77
			c-0.162,0.099-0.324,0.198-0.487,0.298c-0.829-0.787-1.179-1.87-1.737-2.823c0.119-0.91-0.867-0.734-1.188-1.212
			c6.511-1.345,13.133-2.012,19.739-2.002c6.119,0.009,11.465-1.952,16.762-4.578c10.71-5.31,21.845-9.581,33.228-13.184
			c5.317-1.683,10.882-2.244,16.408-2.866c9.29-1.047,18.616-1.581,27.967-1.613c3.212,0,6.425,0,9.638,0
			c-0.001-0.091-0.002-0.182-0.002-0.273C47.139,16.006,43.944,16.006,40.749,16.006z M2.604,30.899
			c0.079-0.109,0.158-0.218,0.237-0.327c-0.056-0.033-0.113-0.067-0.168-0.101c-0.028,0.138-0.056,0.276-0.083,0.414
			c-0.048,0.055-0.098,0.11-0.146,0.164C2.497,30.999,2.551,30.949,2.604,30.899z M3.23,29.665c0.08-0.112,0.16-0.224,0.241-0.336
			c-0.058-0.038-0.116-0.076-0.173-0.113c-0.034,0.139-0.068,0.277-0.102,0.417c-0.045,0.06-0.089,0.119-0.134,0.179
			C3.118,29.762,3.174,29.714,3.23,29.665z M-8.569,28.723c0.13-0.031,0.259-0.062,0.388-0.092
			c-0.035-0.052-0.068-0.103-0.102-0.154c-0.097,0.081-0.194,0.161-0.292,0.242c-0.132,0.027-0.264,0.055-0.396,0.082
			c0.033,0.054,0.065,0.107,0.098,0.161C-8.771,28.882-8.669,28.802-8.569,28.723z M-6.344,27.855
			c0.14-0.067,0.465-0.021,0.338-0.271c-0.093-0.183-0.333-0.035-0.468,0.116c-0.128,0.095-0.479,0.044-0.346,0.29
			C-6.718,28.181-6.483,28-6.344,27.855z M95.663,27.175c0.115,0.079,0.23,0.159,0.349,0.23c0.004,0.002,0.055-0.074,0.085-0.114
			c-0.142-0.042-0.284-0.084-0.425-0.126c-0.104-0.08-0.208-0.159-0.312-0.239c-0.033,0.055-0.067,0.11-0.101,0.165
			C95.394,27.119,95.529,27.147,95.663,27.175z M0.019,25.201c-0.318,0.059-0.666,0.047-0.877,0.365
			c-0.895,0.141-1.85,0.098-2.54,0.851c-0.263,0.061-0.526,0.121-0.79,0.182c-0.423,0.145-0.877,0.237-1.156,0.656
			c0.155,0.356,0.708,0.094,0.8,0.525c-2.443,1.233-5.063,2.087-7.433,3.475c-1.874,0.745-3.594,1.782-5.304,2.828
			c-2.138,1.309-2.019,1.287-1.063,3.638c0.832,2.049,2.08,2.877,4.345,2.74c3.238-0.197,6.496-0.054,9.745-0.056
			c0.551,0,1.165,0.174,1.472-0.519c0.586-1.236,1.175-2.471,1.762-3.706c0.305-0.609,0.611-1.219,0.916-1.828
			c0.997-1.835,1.968-3.681,2.706-5.64c0.098-0.044,0.146-0.121,0.147-0.228c0.604-1.171,1.206-2.343,1.977-3.839
			c-3.101,1.033-5.852,1.95-8.603,2.866c-0.354-0.198-0.086-0.395,0.001-0.592c0.24-0.042,0.488-0.07,0.614-0.326
			c0.849-0.261,1.754-0.366,2.496-0.917c0.338-0.021,0.675-0.043,0.928-0.314c0.21-0.099,0.421-0.197,0.632-0.296
			c0.241-0.061,0.482-0.121,0.724-0.181c-0.05-0.063-0.091-0.167-0.152-0.181c-0.271-0.063-0.5,0.023-0.674,0.247
			C0.469,25.034,0.244,25.118,0.019,25.201z M3.523,24.058c0.502,0.019,1.213-0.169,1.47,0.092c1.314,1.328,0.761-0.396,1.126-0.595
			c-0.949-0.17-1.78,0.104-2.58,0.521c-0.169,0.041-0.337,0.082-0.505,0.124c0.029,0.037,0.052,0.1,0.086,0.106
			C3.327,24.35,3.472,24.277,3.523,24.058z M44.428,20.209c2.921,0.226,5.841,0.102,8.762,0c-2.902-0.469-5.819-0.528-8.744-0.406
			c-3.093,0-6.187,0-9.279,0c0.001,0.136,0.001,0.271,0.001,0.406C38.255,20.209,41.341,20.209,44.428,20.209z M-18.965,38.214
			c-0.327-1.036-0.899-1.999-0.98-3.117c-0.484,1.265,0.184,2.278,0.745,3.314c1.002,2.797,1.282,2.998,4.231,3.004
			c1.291,0.004,2.582,0.003,3.873,0.003c2.792,0,5.583,0,8.375,0c-3.66-0.266-7.329-0.426-10.975-0.211
			C-16.259,41.359-18.001,40.61-18.965,38.214z M12.216,22.197c0.516-0.015,1.042,0.032,1.546-0.053
			c6.521-1.094,13.075-1.811,19.696-1.824c0.342,0,0.824,0.225,1.044-0.294c-0.195-0.27-0.463-0.238-0.707-0.227
			c-5,0.239-10.015,0.347-14.97,1.091c-2.212,0.332-4.486,0.457-6.6,1.323c-1.829-0.107-3.452,0.648-5.129,1.178
			C8.849,23.181,10.611,23.01,12.216,22.197z M8.133,31.821c0.113,2.528,0.291,5.056,0.309,7.586
			c0.008,1.144,0.351,1.45,1.493,1.473c4.7,0.095,9.397,0.336,14.097,0.471c5.679,0.162,11.361,0.269,17.041,0.398
			c3.592,0.444,7.215,0.182,10.813,0.476c0.92,0.075,0.815-0.401,0.755-1.045c-0.579-6.286-1.155-12.573-1.659-18.865
			c-0.085-1.052-0.391-1.381-1.46-1.373c-8.047,0.062-16.101-0.106-24.137,0.408c-3.49,0.223-6.958,0.747-10.373,1.559
			c-0.651,0.102-1.31,0.173-1.954,0.31c-2.416,0.513-4.143,1.832-4.895,4.264C7.677,28.925,7.759,30.372,8.133,31.821z
			 M64.676,37.962c0.504,0.844,0.617,1.837,1.008,2.705c0.333,0.739-0.001,1.964,1.205,2.153c1.407,0.221,2.834,0.443,4.252,0.438
			c1.905-0.006,3.798,0.071,5.697,0.176c5.244,0.289,10.491,0.512,15.736,0.761c4.167,0.407,8.34,0.687,12.626,0.699
			c-0.735-1.673-1.047-6.233-0.653-7.8c0.243-0.971,0.81-1.413,1.795-1.224c1.363,0.26,2.719,0.557,4.078,0.837
			c0.129-0.028,0.258-0.057,0.388-0.084c-0.055-0.077-0.108-0.155-0.162-0.231c-9.641-6.255-19.772-11.328-31.255-13.271
			c-4.167-0.705-8.313-1.5-12.559-1.497c-2.831-0.49-5.693-0.401-8.731-0.647c2.439,5.664,4.623,11.148,6.511,16.745
			c-1.278-0.477-1.721-1.699-1.914-2.771c-0.719-4.013-3.08-7.405-4.102-11.301c-0.237-0.905-1.146-1.654-1.808-2.423
			c-0.385-0.448-0.963-0.305-1.452-0.16c-0.273,0.081-0.271,0.389-0.221,0.663c0.615,3.274,1.114,6.575,1.867,9.816
			c0.771,3.326,1.835,6.587,2.071,10.02c0.077,1.119,0.854,1.445,1.561,0.965c0.708-0.481,1.247-0.33,1.854-0.14
			c1.08,0.339,2.173,0.302,3.545,0.353C64.422,41.304,64.686,39.601,64.676,37.962z M-44.55,38.467c8.095,0,16.189,0,24.372,0
			c-0.078-0.252-0.143-0.492-0.226-0.725c-0.995-2.765-0.848-3.247,1.723-4.718c8.895-5.086,18.154-9.202,28.301-11.181
			c5.475-1.068,10.95-2.037,16.51-2.428c7.897-0.556,15.808-0.348,23.713-0.249c0.914,0.012,1.108-0.215,1.129-1.09
			c0.026-1.062-0.471-1.114-1.313-1.124c-12.308-0.139-24.595,0.288-36.831,1.645c-5.732,0.636-11.467,1.363-17.025,3.033
			c-5.135,1.543-10.06,3.667-15.111,5.445C-28.006,30.135-36.08,34.612-44.55,38.467z M56.117,42.375
			c2.217,0.003,2.294-0.095,1.823-2.277c-0.248-1.15-0.538-2.292-0.729-3.453c-0.791-4.792-2.159-9.467-2.845-14.281
			c-0.15-1.055-1.032-1.193-1.915-1.065c-0.946,0.137-0.835,0.852-0.788,1.549c0.21,3.06,1.114,6.051,0.89,9.157
			c-0.032,0.452,0.091,0.914,0.144,1.372c0.223,1.921,0.612,3.841,0.625,5.764C53.338,41.48,53.76,42.579,56.117,42.375z
			 M7.894,26.374c-0.302-0.361-0.129-0.994-0.657-1.278c-0.269-0.145-0.52,0.036-0.618,0.293c-0.499,1.313-1.878,2.095-2.203,3.467
			c-0.762,3.227-2.831,5.788-4.279,8.664c-0.703,1.396-0.247,2.233,1.23,2.735c1.114,0.38,2.236-0.111,3.277,0.299
			c0.81,0.319,1.588,0.523,2.302-0.084c0.755-0.643,1.013-1.452,0.782-2.481c-0.415-1.859-0.225-3.78-0.365-5.668
			C7.219,30.398,7.159,28.361,7.894,26.374z M54.416,7.669c0-0.004,0-0.008,0-0.013c-2.271,0-4.542-0.037-6.811,0.015
			C46.32,7.7,45.026,7.808,43.928,8.635c-0.287,0.215-0.737,0.356-0.657,0.767c0.102,0.515,0.611,0.48,1.013,0.456
			c2.374-0.143,4.533,1.384,6.953,0.888c0.131-0.027,0.318,0.049,0.434,0.137c1.067,0.808,2.347,0.649,3.429,0.383
			c2.771-0.68,5.624-0.806,8.395-1.438c0.291-0.066,0.655,0.022,0.788-0.344c0.163-0.451-0.188-0.653-0.491-0.844
			c-0.832-0.525-1.672-0.995-2.721-0.979C58.853,7.691,56.635,7.669,54.416,7.669z M49.794,11.459
			c-0.895-0.222-1.82,0.299-2.588-0.306c-1.379-1.086-2.98-0.417-4.475-0.592c-0.314-0.037-0.464,0.19-0.546,0.438
			c-0.334,0.997-0.415,2.093-0.063,3.01c0.216,0.562,1.212,0.19,1.857,0.232c0.717,0.046,1.439-0.011,2.159,0.016
			c1.329,0.05,2.663,0.202,2.861-1.71C49.038,12.171,49.503,11.839,49.794,11.459z M57.906,11.717
			c0.246,0.178,0.683,0.333,0.708,0.539c0.321,2.628,2.291,1.958,3.905,1.993c0.567,0.012,1.136-0.013,1.703,0.001
			c0.949,0.023,1.923,0.161,1.645-1.365c-0.197-1.079,0.267-2.233-1.683-2.402C61.983,10.293,60.198,11.898,57.906,11.717z
			 M57.45,14.123c0.236-0.042,0.677,0.157,0.861-0.272c0.195-0.458-0.135-0.766-0.419-1.078c-0.339-0.375-0.754-0.509-1.244-0.507
			c-1.861,0.007-3.721,0.014-5.581,0.002c-0.74-0.005-1.334,0.205-1.566,0.968c-0.085,0.281-0.167,0.716,0.195,0.809
			c0.591,0.151,1.167,0.125,1.772-0.219c1.479-0.842,3.028-0.899,4.568-0.087C56.448,13.956,56.86,14.177,57.45,14.123z
			 M30.14,42.19c-10.522-0.34-21.044-0.682-31.567-1.022C9.092,41.894,19.619,42.332,30.14,42.19z M58.471,43.179
			c-9.094-0.311-18.18-0.932-27.286-0.653C40.285,42.559,49.368,43.312,58.471,43.179z M77.169,21.795
			c-7.399-1.501-14.878-1.877-22.401-1.613C62.266,20.272,69.727,20.904,77.169,21.795z M81.394,44.42
			c-5.386-0.37-10.765-0.881-16.179-0.717C70.615,43.823,75.979,44.641,81.394,44.42z M56.167,15.392
			c-0.603-1.364-3.499-1.783-4.293-0.762c-0.11,0.143-0.207,0.38-0.168,0.537c0.083,0.326,0.408,0.218,0.64,0.22
			C53.565,15.397,54.785,15.392,56.167,15.392z M77.874,22.14c1.723,0.343,3.445,0.687,5.168,1.03
			C81.41,22.392,79.703,21.991,77.874,22.14z M64.415,43.533c-1.559-0.354-3.183-0.04-4.773-0.293
			C61.184,43.825,62.811,43.437,64.415,43.533z M83.347,44.632c-0.009,0.05-0.02,0.101-0.03,0.15c1.524,0,3.05,0,4.575,0
			c0-0.05,0-0.1,0.001-0.15C86.378,44.632,84.863,44.632,83.347,44.632z M127.205,45.965c-0.099,0.36-0.457,0.878-0.213,0.985
			c0.419,0.186,0.987,0.437,1.548,0.076C128.196,46.453,127.712,46.222,127.205,45.965z M89.644,44.746
			c1.042,0.643,2.133,0.339,3.216,0.188C91.789,44.871,90.717,44.808,89.644,44.746z M83.659,23.339
			c0.327,0.035,0.548,0.062,0.769,0.073c0.015,0,0.061-0.178,0.049-0.183C84.244,23.117,84.008,23.085,83.659,23.339z
			 M105.993,45.948c-0.083-0.05-0.156-0.125-0.231-0.127c-0.078-0.003-0.159,0.065-0.238,0.101c0.073,0.045,0.145,0.123,0.22,0.128
			C105.822,46.054,105.903,45.988,105.993,45.948z M2.461,24.493c-0.103-0.031-0.19-0.069-0.282-0.079
			c-0.034-0.003-0.076,0.059-0.113,0.091c0.068,0.046,0.135,0.124,0.206,0.127C2.329,24.635,2.391,24.55,2.461,24.493z
			 M94.564,26.721c-0.024-0.036-0.041-0.091-0.073-0.103c-0.041-0.015-0.096,0.007-0.144,0.013c0.032,0.054,0.064,0.108,0.095,0.162
			C94.483,26.769,94.524,26.745,94.564,26.721z M98.222,28.385c0.032-0.036,0.066-0.073,0.099-0.11
			c-0.082-0.042-0.161-0.093-0.247-0.12c-0.024-0.006-0.071,0.063-0.107,0.098C98.049,28.296,98.131,28.338,98.222,28.385z
			 M-9.918,29.153c0.01,0.037,0.007,0.091,0.03,0.105c0.036,0.022,0.102,0.039,0.134,0.021c0.118-0.067,0.102-0.138-0.037-0.171
			C-9.827,29.099-9.875,29.136-9.918,29.153z M-19.257,34.46c-0.084-0.029-0.159-0.066-0.238-0.076
			c-0.028-0.003-0.064,0.057-0.096,0.089c0.054,0.044,0.112,0.125,0.164,0.122C-19.368,34.591-19.316,34.51-19.257,34.46z
			 M-13.39,31.109l0.059-0.078l-0.098-0.012L-13.39,31.109z M-11.579,30.108l0.082,0.05l0.011-0.077L-11.579,30.108z
			 M-10.956,29.799l0.074,0.045l0.01-0.068L-10.956,29.799z M97.29,27.938l0.109,0.059l0.01-0.094L97.29,27.938z M96.826,27.648
			l-0.096-0.057l-0.01,0.09L96.826,27.648z"/>
		<path fill-rule="evenodd" clip-rule="evenodd" fill="#181525" d="M132.201,45.129c1.056,0.352,2.046,0.758,3.259,0.423
			c1.108-0.306,2.983,1.068,3.195,2.08c-0.11,0.437-0.622,0.691-0.557,1.256c9.854,0.82,19.62,2.363,29.451,3.345
			c5.74,0.573,11.437,1.462,17.149,2.24c0.406,0.117,4.549,0.874,4.955,0.991c-1.162,3.134-2.287,5.313-0.348,9.462
			c-1.939-0.18-7.694-0.573-9.532-0.465c-0.851,0.051-1.379-0.136-2.06-0.567c-3.967-2.521-8.246-4.116-13.023-4.154
			c-4.587-0.037-9.091,0.292-13.268,2.465c-1.957,1.018-3.937,1.943-5.522,3.577c-2.425,2.5-3.456,5.361-5.14,8.303
			c-0.541,0.943-1.736,1.766-1.586,2.875c0.402,2.982-1.518,5.428-1.646,8.295c-0.099,2.242-0.343,7.592-0.897,7.049l-0.033,0.033
			c-0.639-0.137-0.891,0.338-1.23,0.73c-0.359,0.42-0.721,0.863-1.402,0.594c-0.857-0.34-1.75-0.09-2.619-0.094
			c-4.29-0.018-8.449-0.107-12.737-0.217c-1.253-0.033-2.094-0.078-3.087,1.027c-7.122,0.029-14.246,0.078-21.37,0.082
			c-23.284,0.01-46.568,0.004-69.853,0c-0.721,0-1.753-0.053-2.474-0.082c0.766-1.68-0.217-1.43-1.2-1.41
			c-3.451,0.076-6.909-0.309-10.356,0.252c-1.802,0.293-2.27-0.545-2.221-2.371c0.089-3.381,0.765-6.834-1.029-10.096
			c-0.617-1.119-0.668-2.568-0.883-3.883c-0.067-0.412,0.345-1.344,0.823-1.498c0.633-0.205,1.087,0.75,1.17,1.156
			c0.292,1.436,1.094,2.576,1.538,3.922c0.563,1.707,2.081,3.115,2.007,5.072c-0.014,0.377,0.43,0.535,0.801,0.619
			c1.498,0.346,2.417,1.289,2.774,2.789c0.102,0.424,0.195,0.621,0.621,0.516c1.741-0.43,3.043,0.096,4.491,0.986
			c0.225,0.139,0.608,0.025,0.919,0.025c0.724,0.002,1.511-0.184,2.159,0.037c1.737,0.596,2.562-0.117,3.358-1.318
			c0.771-0.037,1.543-0.104,2.315-0.105c9.147-0.008,18.294-0.033,27.44,0.016c1.402,0.008,2.055-0.365,2.642-1.779
			c1.769-4.262,1.817-8.762,2.305-13.213c0.113-1.025-0.575-0.885-1.192-0.898c-6.354-0.125-12.707-0.252-19.061-0.381
			c-11.111-0.223-22.222-0.447-33.333-0.672c-0.56-0.576-1.022-1.178-0.583-2.041c0.405-0.795,1.06-0.969,1.919-0.953
			c7.997,0.152,15.995,0.248,23.992,0.395c9.138,0.168,18.276,0.361,27.413,0.572c0.767,0.018,1.037-0.127,1.127-0.979
			c0.127-1.189-0.454-1.387-1.329-1.232c-1.753,0.307-2.491-0.504-2.959-2.121c-0.917-3.167-2.031-6.278-3.098-9.52
			c0.721,0,1.248,0.076,1.745-0.014c1.494-0.271,1.992,0.48,2.372,1.814c0.674,2.367,1.59,4.666,2.404,6.992
			c1.179,0.295,1.001-0.057,1.141-0.154c1.486,0.036,2.769,0.643,4.129,0.417c0.902,0.68,0.831,1.739,1.167,2.72
			c-1.252,0-2.386-0.016-3.519,0.006c-0.636,0.012-1.425-0.365-1.433,0.916c-0.007,1.092,0.374,1.303,1.324,1.223
			c0.714-0.061,1.442,0.035,2.165,0.049c7.847,0.16,15.695,0.316,23.542,0.475c0.007,0.172,0.016,0.342,0.023,0.512
			c-1.438,0.266-1.57,0.623-0.93,2.484c-0.419,0.043-0.839,0.084-1.26,0.127c-0.406-0.045-0.813-0.088-1.22-0.133
			c-7.485-0.121-14.971-0.209-22.454-0.395c-1.223-0.029-1.388,0.391-1.48,1.469c-0.367,4.303-0.456,8.674-2.331,12.703
			c-0.571,1.225-0.354,1.623,1.11,1.613c9.447-0.064,18.896-0.039,28.343-0.039c13.171,0.002,26.343-0.002,39.514,0.037
			c0.944,0.004,1.332-0.334,1.692-1.154c2.223-5.055,2.144-10.445,2.404-15.789c0.39-3.594,0.394-7.197,0.24-10.798
			c-0.198-4.627-0.521-9.245-2.995-13.37c0.004-0.299,0.007-0.599,0.01-0.898c0.406-0.347,0.812-0.692,1.218-1.039
			c0.528,0.496,1.214-0.044,1.812,0.475c-0.172-0.831-0.971-0.583-1.194-1.085C132.027,45.328,132.114,45.229,132.201,45.129z"/>
		<path fill-rule="evenodd" clip-rule="evenodd" fill="#181525" d="M-50.763,90.709c-3.838-0.414-7.68-0.799-11.514-1.25
			c-5.681-0.67-11.357-1.385-17.034-2.082c-2.02-0.248-3.914-0.824-5.603-2.018c-2.375-1.676-2.84-4.203-3.011-6.813
			c-0.255-3.857-0.411-7.727,0.254-11.566c0.174-1.006,0.547-1.97,1.04-2.876c0.7,0.158,1.057,0.717,1.448,1.234
			c-0.575,1.456-1.252,2.884-1.106,4.556c1.253-4.467,4.399-7.749,7.871-10.466c1.442,0.275,2.897,0.343,4.365,0.323
			c2.374-0.032,4.751,0.015,7.125-0.02c1.22-0.017,2.394,0.635,2.723,1.948c0.283,1.128,0.946,2.049,1.932,2.699
			c0.971,0.641,3.406,0.333,3.71,0.333c4.697-0.006,18.399-0.005,23.096-0.003c0.51,0-10.64,16.974-10.668,18.259
			c-0.028,1.281,0.172,2.682-1.132,3.615c-0.564,0.404-0.258,0.771,0.206,1.07c0.318,0.207,0.958,0.246,0.808,0.768
			c-0.232,0.814-1.306,1.607-1.894,2.152c-0.572,0.527-0.821-0.668-1.244-0.855c-0.405-0.182-0.085,0.578-0.618,0.867
			C-50.717,90.969-50.743,90.252-50.763,90.709z"/>
		<path fill-rule="evenodd" clip-rule="evenodd" fill="#141415" d="M210.745,72.037c-0.156-1.344-0.232-2.848-1.398-3.889
			c0.963,2.814,0.061,5.805,0.826,8.641c0.455,1.682,0.463,3.322-0.268,4.975c-0.307,0.695-0.668,0.938-1.375,0.945
			c-1.559,0.018-3.068-0.258-4.559-0.664c-3.541-0.961-7.113-0.953-10.641-0.072c-2.426,0.605-4.92-1.025-4.895-3.496
			c0.031-3.07-1.965-5.102-3.637-7.307c-1.301-1.715-2.614-3.424-3.943-5.118c-0.615-0.784-0.404-1.058,0.531-1.038
			c1.13,0.024,2.275-0.104,3.359,0.362c0.332,0.144,0.682,0.323,0.932-0.137c-0.123-0.275-0.246-0.555-0.367-0.833
			c-1.861,0.146-3.7-0.364-5.538-0.256c-0.851,0.05-1.379-0.136-2.06-0.568c-3.967-2.521-8.246-4.114-13.023-4.153
			c-4.587-0.038-9.091,0.292-13.268,2.464c-1.957,1.018-3.937,1.944-5.522,3.579c-2.425,2.499-3.767,5.671-5.45,8.612
			c-0.541,0.943-1.736,1.766-1.586,2.875c0.402,2.982-1.518,5.428-1.645,8.295c-0.098,2.242-0.402,7.676-0.619,6.77
			c-0.639-0.135-0.891,0.34-1.23,0.732c-0.359,0.42-0.732,0.965-1.414,0.695c-0.857-0.34-1.738-0.191-2.607-0.195
			c-4.29-0.02-8.584,0.059-12.871-0.051c-1.253-0.031-2.312-0.1-2.953,1.172c7.867,0.113,15.733,0.18,23.601-0.037
			c0.659-0.314,1.35-0.15,2.03-0.137c0.063,0.014,0.123,0.029,0.179,0.047c0.221-0.461,0.552-0.861,0.958-1.166
			c-0.438-2.078-0.57-4.287-0.366-6.641c0.232-4.545,2.003-8.486,4.904-11.902c4.763-5.609,10.986-8.045,18.223-7.592
			c4.445,0.279,8.414,2.121,11.868,5.004c3.679,3.07,6.011,6.943,7.195,11.568c0.25,0.977,0.266,1.928,0.273,2.904
			c0.277,2.086,0.449,4.166-0.285,6.205c0.018,0.209,0.033,0.418,0.053,0.625c0.188,0,0.375,0,0.563,0
			c0.223-0.57,0.668-0.662,1.227-0.65c0.82,0.018,1.645-0.045,2.465-0.072c1.658-0.439,3.338-0.264,5.014-0.191l5.846-0.135
			c0.5-0.371,1.057-0.238,1.605-0.174c2.262-0.057,4.521-0.008,6.787-0.254c1.713-0.184,2.768-0.979,3.238-2.496
			c0.535-1.717,0.879-3.482,0.922-5.311C211.913,79.951,211.206,76.004,210.745,72.037z"/>
		<path fill-rule="evenodd" clip-rule="evenodd" fill="#181525" d="M209.56,68.248c0.963,2.813,0.158,5.705,0.924,8.541
			c0.457,1.682,0.463,3.633-0.268,5.285c-0.309,0.695-0.979,0.938-1.686,0.945c-1.559,0.018-3.068-0.258-4.559-0.662
			c-3.541-0.963-7.113-0.955-10.641-0.072c-2.426,0.605-5.23-1.338-5.205-3.809c0.031-3.07-1.965-5.102-3.635-7.307
			c-1.303-1.715-2.615-3.113-3.945-4.807c-0.615-0.785-0.094-1.68,0.842-1.659c1.13,0.023,2.275-0.104,3.359,0.361
			c3.316-5.104,4.309,0.279,4.559-0.179c4.752,1.04,3.566,3.102,7.639,2.598c1.557-0.656,2.715-1.978,4.844-0.869
			c2.055-0.217,4.039,0.686,6.143,0.43c-0.318-0.818-0.611-1.571-0.902-2.323c0.104-0.206-0.033-0.529,0.303-0.624
			c0.598,1.237,1.92,3.891,2.02,4.053L209.56,68.248z"/>
		<path fill-rule="evenodd" clip-rule="evenodd" fill="#29282A" d="M199.253,66.307c-2.725,2.271-6.762,1.877-9.061-0.294
			c-2.227-2.102-2.928-6.786-1.154-9.46c0.66-0.996,1.174-2.491,2.85-2.435c0.807,0.229,1.611,0.459,2.418,0.688
			c0.002,0.206,0.006,0.411,0.006,0.616c-2.42-0.197-3.965,1.227-5.24,2.976c-0.621,0.85-0.596,1.806,0.336,2.609
			c1.053,0.906,2.057,1.873,3.037,2.857c1.225,1.228,2.672,1.88,4.408,1.892l-0.01-0.01
			C197.648,65.934,198.45,66.121,199.253,66.307z"/>
		<path fill-rule="evenodd" clip-rule="evenodd" fill="#545454" d="M-74.619,58.166c-1.004,0.024-2.012,0.111-3.012,0.058
			c-0.913-0.048-1.169,0.342-1.035,1.157c-1.736-0.165-2.232,1.559-3.414,2.239c-0.05-0.766-0.452-1.185-1.223-1.24
			c2.28-1.751,2.82-4.141,2.509-6.842c0.24,0.255,0.481,0.512,0.722,0.767c-0.181,0.894,0.072,1.795-0.146,2.717
			c-0.174,0.733,0.282,1.231,1.192,1.097C-77.558,57.903-76.085,57.937-74.619,58.166z"/>
		<path fill-rule="evenodd" clip-rule="evenodd" fill="#3E3E3E" d="M-73.405,40.522c0.321,0.478,1.307,0.302,1.188,1.212
			c-1.808-0.736-3.896-0.001-4.333,1.833c-0.366,1.533-1.734,2.58-1.748,4.218c-0.002,0.311-0.281,0.539-0.655,0.51
			c-0.021-0.126-0.042-0.252-0.064-0.378c0.414-2.056,1.227-3.973,2.335-5.722C-75.978,41.082-74.703,40.684-73.405,40.522z"/>
		<path fill-rule="evenodd" clip-rule="evenodd" fill="#3E3E3E" d="M-85.183,65.339c-0.391-0.518-0.749-1.076-1.448-1.234
			c0.744-1.065,1.563-2.06,2.624-2.83c0.433,0.318,0.864,0.637,1.295,0.956C-83.535,63.267-84.359,64.304-85.183,65.339z"/>
		<path fill-rule="evenodd" clip-rule="evenodd" fill="#6A686D" d="M194.312,55.423c0-0.205-0.004-0.41-0.006-0.616
			c2.863,0.986,5.775,1.848,8.43,3.357c-0.127,0.131-0.256,0.261-0.383,0.391C199.673,57.511,196.993,56.467,194.312,55.423z"/>
		<path fill-rule="evenodd" clip-rule="evenodd" fill="#29282A" d="M-79.018,47.917c0.021,0.126,0.042,0.252,0.063,0.377
			c0.433,1.226-0.165,2.315-0.603,3.348c-0.468,1.104-0.202,1.71,0.795,2.164c-0.158,0.479-0.63,0.255-0.931,0.415
			c-0.126,0.028-0.252,0.056-0.378,0.084c-0.241-0.255-0.482-0.512-0.722-0.767C-80.295,51.636-79.938,49.687-79.018,47.917z"/>
		<path fill-rule="evenodd" clip-rule="evenodd" fill="#545454" d="M40.749,16.006c3.195,0,6.39,0,9.585,0
			c0,0.091,0.001,0.182,0.002,0.273c-3.212,0-6.425,0-9.638,0C40.745,16.193,40.762,16.102,40.749,16.006z"/>
		<path fill-rule="evenodd" clip-rule="evenodd" fill="#6A686D" d="M207.331,64.098c-0.336,0.095-0.199,0.418-0.303,0.624
			c-0.525-1.193-1.049-2.389-1.572-3.582c0.027-0.281,0.055-0.562,0.082-0.842C206.538,61.374,207.021,62.697,207.331,64.098z"/>
		<path fill-rule="evenodd" clip-rule="evenodd" fill="#29282A" d="M205.538,60.298c-0.027,0.28-0.055,0.561-0.082,0.842
			c-0.832-1.104-2.043-1.756-3.104-2.585c0.127-0.13,0.256-0.26,0.383-0.391C203.898,58.577,204.829,59.29,205.538,60.298z"/>
		<path fill-rule="evenodd" clip-rule="evenodd" fill="#181525" d="M-82.712,62.231c-0.432-0.319-0.863-0.638-1.295-0.956
			c0.093-0.411,0.421-0.635,0.705-0.895c0.771,0.056,1.173,0.475,1.223,1.24C-82.291,61.823-82.501,62.027-82.712,62.231z"/>
		<path fill-rule="evenodd" clip-rule="evenodd" fill="#545454" d="M188.411,92.533c1.658-0.439,3.338-0.264,5.014-0.191
			C191.763,92.608,190.091,92.668,188.411,92.533z"/>
		<path fill-rule="evenodd" clip-rule="evenodd" fill="#181525" d="M139.126,94.34c0.659-0.314,1.35-0.15,2.03-0.137
			C140.48,94.248,139.802,94.293,139.126,94.34z"/>
		<path fill-rule="evenodd" clip-rule="evenodd" fill="#545454" d="M199.271,92.207c0.5-0.371,1.057-0.238,1.605-0.174
			C200.37,92.369,199.823,92.321,199.271,92.207z"/>
		<path fill-rule="evenodd" clip-rule="evenodd" fill="#181525" d="M4.716,94.199c0.531,0.004,1.077-0.162,1.577,0.15
			C5.754,94.44,5.225,94.424,4.716,94.199z"/>
		<path fill-rule="evenodd" clip-rule="evenodd" fill="#141415" d="M209.351,68.151c-0.203,0.131-0.455,0.35-0.6,0.002
			c-0.088-0.215,0.18-0.295,0.373-0.34C209.2,67.926,209.275,68.037,209.351,68.151z"/>
		<path fill-rule="evenodd" clip-rule="evenodd" fill="#EAE8EC" d="M130.094,47.975c2.474,4.125,2.797,8.743,2.995,13.37
			c0.153,3.601,0.149,7.204-0.24,10.798c-0.099,0.146-0.198,0.293-0.297,0.439c-0.644-0.846-1.492-1.066-2.548-1.084
			c-7.167-0.117-14.331-0.322-21.498-0.449c-4.378-0.078-8.758-0.068-13.136-0.098c-1.962-0.49-3.955-0.201-5.934-0.244
			c-7.848-0.158-15.695-0.314-23.542-0.475c-0.723-0.014-1.451-0.109-2.165-0.049c-0.95,0.08-1.331-0.131-1.324-1.223
			c0.008-1.281,0.797-0.904,1.433-0.916c1.132-0.021,2.267-0.006,3.519-0.006c-0.336-0.98-0.265-2.04-1.167-2.72
			c-0.51-0.06-1.019-0.153-1.529-0.173c-2.195-0.09-2.186-0.082-2.215-2.197c-0.086-6.31-0.553-12.567-2.707-18.783
			c3.745,0.182,7.339,0.349,10.933,0.531c5.155,0.262,10.309,0.533,15.464,0.804c6.281,0.333,12.563,0.674,18.844,1.004
			c0.716,0.037,1.433,0.033,2.15,0.049c1.015,0.269,2.052,0.162,3.082,0.188c1.771,0.353,3.557,0.286,5.343,0.218
			c0.287,0.032,0.573,0.065,0.858,0.098c0.94,0.295,1.9,0.309,2.869,0.201c2.794,0.224,5.598,0.376,8.378,0.711
			C128.495,48.071,129.301,47.154,130.094,47.975z M109.851,57.581c-0.259-0.501-0.732-0.274-1.102-0.283
			c-1.951-0.044-3.901-0.051-5.852-0.063c-2.555-0.016-2.556-0.012-1.723,2.458c0.112,0.334,0.252,0.658,0.38,0.988
			c0.724,2.303,1.483,4.595,2.153,6.915c0.266,0.92,0.662,1.367,1.695,1.279c0.969-0.082,1.956,0.074,2.936,0.072
			c1.817-0.004,3.644,0.252,5.484-0.014c-0.629-2.441-0.629-2.443-3.014-2.563c-0.669-0.033-1.354-0.168-2.005-0.072
			c-1.694,0.252-2.466-0.479-2.519-2.219c1.483,0,2.966-0.03,4.447,0.014c0.75,0.021,0.862-0.225,0.663-0.903
			c-0.297-1.019-0.678-1.659-1.974-1.601c-1.518,0.069-3.081,0.267-4.582-0.255c-0.286-1.585,0.667-1.737,1.865-1.62
			c0.248,0.024,0.499,0.003,0.749,0.003c0.302,0.019,0.603,0.047,0.905,0.052C110.743,59.807,110.743,59.805,109.851,57.581z
			 M94.04,60.36c-1.813-2.718-4.178-3.894-7.256-3.657c-2.173,0.166-3.461,1.402-3.506,3.364c-0.125,5.426,5.468,9.867,10.66,8.467
			c1.076-0.291,1.98-1.971,1.679-3.123c-0.136-0.517-2.444-1.572-3.038-1.414c-0.262,0.069-0.332,0.239-0.307,0.442
			c0.123,1.048-0.408,1.574-1.386,1.628c-0.86,0.045-1.63-0.294-2.21-0.938c-0.815-0.904-1.177-2.044-1.502-3.186
			c-0.229-0.812-0.4-1.684,0.448-2.246c0.834-0.552,1.915-0.416,2.43,0.233C91.265,61.46,92.538,60.901,94.04,60.36z M70.722,56.613
			c1.088,3.242,2.125,6.348,3.174,9.448c0.792,2.338,0.798,2.297,3.303,2.264c0.839-0.01,0.968-0.266,0.721-0.984
			c-1.132-3.297-2.249-6.6-3.364-9.903c-0.153-0.454-0.282-0.861-0.909-0.834C72.729,56.642,71.81,56.613,70.722,56.613z
			 M66.891,48.181c-0.902,0-1.523-0.033-2.14,0.008c-0.969,0.063-1.559,0.646-1.56,1.583c-0.002,0.994,0.54,1.637,1.636,1.635
			c0.98-0.001,1.959,0.026,2.939,0.011c0.475-0.006,0.918-0.009,1.287,0.365c1.289,1.308,2.965,1.489,4.677,1.656
			c2.469,0.241,4.145-1.542,6.179-2.38c0.924-0.381,0.665-2.476-0.313-2.72c-0.907-0.227-1.509-0.819-2.264-1.217
			c-2.451-1.285-5.018-1.436-7.352,0.065C68.868,47.903,67.885,48.356,66.891,48.181z"/>
		<path fill-rule="evenodd" clip-rule="evenodd" fill="#181525" d="M-0.827,63.854c-2.306,1.09-4.056-0.694-5.904-1.314
			c-1.383-0.464-3.081-0.609-4.013-2.072c-0.058-0.089-0.288-0.085-0.438-0.093c-4.925-0.277-9.892-0.634-14.688,0.718
			c-2.422,0.682-4.963,1.296-7.092,2.807c-0.836,0.593-1.744,0.816-2.756,0.814c-7.849-0.01-15.697,0-23.546-0.009
			c-2.466-0.003-4.001-1.33-4.59-3.776c-0.168-0.697-0.437-1.375-0.551-2.08c-0.106-0.663-0.245-0.643-0.706-0.687
			c-0.398-1.228-0.796-2.455-1.194-3.682c0.792-0.393,0.761-1,0.43-1.676c-0.423-0.866-0.885-1.715-1.278-2.595
			c-0.613-1.372-2.542-4.169-2.838-5.95c-0.168-0.255-0.394-0.49-0.495-0.77c-0.216-0.603-0.662-1.281-0.002-1.83
			c0.56-0.467,1.053-0.166,1.723-0.351c5.832-1.606,22.901-1.747,22.88-1.939c0.842-0.266,2.028-0.108,2.916-0.117
			c6.87-0.061,13.742,0.159,20.612-0.108c1.948-0.077,3.04,0.879,3.259,2.619c0.047-0.144,0.46-0.041,0.601-0.007l0.009-0.007
			c0.108,0.001,0.217,0.002,0.325,0.003c4.223,0.915,8.497,0.646,12.758,0.505c0.619-0.021,0.948-0.131,1.347,0.502
			c0.377,0.599,0.627,1.098,0.176,1.66c-1.142,1.421-0.843,3.039-0.881,4.683c-0.085,3.697,1.81,6.63,3.368,9.714
			C-1.52,60.48-1.223,62.228-0.827,63.854z"/>
		<path fill-rule="evenodd" clip-rule="evenodd" fill="#EAE8EC" d="M5.252,70.826c-0.076-0.438,0.138-0.92-0.212-1.314
			C3.051,65.5,1.062,61.49-0.927,57.477c-0.622-1.35-1.265-2.69-1.861-4.053c-1.564-3.571-1.49-7.092,0.342-10.566
			c0.304-0.577,0.652-0.797,1.318-0.773c10.632,0.375,21.264,0.723,31.896,1.078c3.612,0.122,7.226,0.252,10.838,0.364
			c5.419,0.167,10.837,0.359,16.259,0.448c1.062,0.016,1.421,0.442,1.699,1.334c1.187,3.81,1.863,7.711,2.1,11.685
			c0.139,2.32,0.158,4.646,0.249,6.969c0.024,0.615,0.057,1.185-0.835,1.044c-0.814-2.328-1.73-4.627-2.404-6.994
			c-0.379-1.334-0.878-2.084-2.372-1.813c-0.497,0.09-1.023,0.014-1.745,0.014c1.067,3.241,2.181,6.353,3.098,9.52
			c0.468,1.616,1.206,2.429,2.959,2.12c0.875-0.154,1.456,0.045,1.329,1.232c-0.091,0.854-0.361,0.996-1.127,0.979
			c-9.137-0.209-18.275-0.404-27.413-0.572c-7.998-0.146-15.995-0.242-23.993-0.393c-0.859-0.018-1.514,0.158-1.918,0.953
			c-0.438,0.861,0.023,1.465,0.583,2.041c-0.41,0.1-0.82,0.199-1.229,0.299C6.352,71.826,6.232,70.891,5.252,70.826z M6.497,52.826
			c1.744,0.813,3.493,0.645,5.246,0.034c1.15-0.663,2.3-1.324,3.449-1.986c0.789-0.967,0.8-2.082-0.293-2.564
			c-0.795-0.351-1.47-0.834-2.217-1.226c-2.505-1.316-5.097-1.437-7.466,0.122c-1.078,0.709-2.065,0.989-3.265,0.923
			c-0.565-0.032-1.133-0.004-1.699-0.004c-1.151,0-1.751,0.634-1.715,1.724c0.034,1.032,0.678,1.536,1.743,1.521
			c1.336-0.021,2.674,0.011,4.012,0.019C4.754,52.286,5.548,52.676,6.497,52.826z M24.81,55.63
			c-2.048-0.383-4.099-0.305-6.321-0.157c1.02,2.416,1.406,4.859,2.605,7.015c0.05,0.198,0.1,0.396,0.15,0.593
			c-0.131,0.248-0.078,0.47,0.092,0.676c1.01,3.463,1.01,3.463,4.279,3.383c0.083-0.004,0.166-0.088,0.307-0.166
			c-0.159-0.473-0.322-0.956-0.481-1.438c-0.846-2.549-0.845-2.549,1.864-2.71c1.955-0.116,2.798-1.196,2.403-3.078
			C29.19,57.265,27.367,55.734,24.81,55.63z M45.384,67.752c2.778,0.006,4.271-1.256,4.22-3.573
			c-0.106-4.938-4.613-8.973-9.491-8.496c-2.268,0.222-3.582,1.64-3.467,3.74C36.905,64.093,40.731,67.74,45.384,67.752z"/>
		<path fill-rule="evenodd" clip-rule="evenodd" fill="#C6E6E7" d="M15.012,22.908c3.414-0.813,6.882-1.336,10.373-1.559
			c8.037-0.514,16.09-0.346,24.137-0.408c1.069-0.008,1.375,0.321,1.46,1.373c0.504,6.292,1.08,12.579,1.659,18.865
			c0.06,0.644,0.165,1.121-0.755,1.045c-3.598-0.293-7.222-0.031-10.813-0.476c-0.023-0.463-0.258-0.722-0.696-0.903
			c-3.58-1.488-6.918-3.405-10.259-5.382c-4.584-2.712-8.723-5.925-12.514-9.612C16.675,24.948,15.637,24.097,15.012,22.908z
			 M50.542,36.779c0.422-2.259-0.115-4.13-0.224-6.017c-0.157-2.702-0.601-5.385-0.869-8.082c-0.087-0.869-0.638-0.796-1.207-0.767
			c-0.561,0.029-0.632,0.342-0.528,0.85C48.646,27.31,49.554,31.862,50.542,36.779z"/>
		<path fill-rule="evenodd" clip-rule="evenodd" fill="#C6E6E7" d="M66.832,21.622c4.246-0.003,8.392,0.792,12.559,1.497
			c11.483,1.943,21.615,7.016,31.255,13.271c-0.076,0.105-0.15,0.211-0.226,0.317c-1.358-0.281-2.714-0.578-4.078-0.838
			c-0.985-0.189-1.552,0.253-1.795,1.224c-0.394,1.567-0.082,6.127,0.653,7.8c-4.286-0.013-8.458-0.292-12.626-0.699
			c-0.019-0.47-0.312-0.708-0.694-0.933c-0.92-0.543-1.874-1.059-2.71-1.716c-5.482-4.312-10.864-8.742-15.864-13.615
			C71.147,25.827,68.99,23.725,66.832,21.622z M80.777,24.669c-0.02,0.128-0.04,0.257-0.061,0.385
			c7.15,2.689,14.3,5.378,21.45,8.067c0.07-0.189,0.139-0.377,0.209-0.565C95.343,29.48,88.538,25.79,80.777,24.669z
			 M102.811,33.294c0.386,0.437,0.708,0.533,1.151,0.396C103.691,33.312,103.417,33.086,102.811,33.294z"/>
		<path fill-rule="evenodd" clip-rule="evenodd" fill="#EAE8EC" d="M-44.55,38.467c8.47-3.855,16.544-8.332,25.242-11.393
			c5.051-1.778,9.976-3.901,15.111-5.445c5.559-1.67,11.293-2.396,17.025-3.033c12.236-1.357,24.522-1.784,36.831-1.645
			c0.842,0.01,1.339,0.062,1.313,1.124c-0.021,0.875-0.216,1.102-1.129,1.09c-7.906-0.099-15.816-0.307-23.713,0.249
			c-5.56,0.392-11.036,1.36-16.51,2.428c-10.146,1.979-19.406,6.095-28.301,11.181c-2.571,1.471-2.718,1.953-1.723,4.718
			c0.083,0.233,0.148,0.473,0.226,0.725C-28.361,38.467-36.455,38.467-44.55,38.467z"/>
		<path fill-rule="evenodd" clip-rule="evenodd" fill="#99CACB" d="M66.832,21.622c2.158,2.103,4.315,4.205,6.474,6.308
			c5,4.873,10.382,9.303,15.864,13.615c0.836,0.657,1.79,1.172,2.71,1.716c0.382,0.225,0.675,0.463,0.694,0.933
			c-5.246-0.249-10.493-0.472-15.736-0.761c-1.899-0.105-3.792-0.182-5.697-0.176c-1.417,0.005-2.845-0.217-4.252-0.438
			c-1.207-0.189-0.872-1.414-1.205-2.153c-0.391-0.867-0.504-1.861-1.008-2.705c0.023-0.092,0.001-0.172-0.064-0.242
			c-1.888-5.597-4.072-11.082-6.511-16.745C61.139,21.221,64.001,21.132,66.832,21.622z"/>
		<path fill-rule="evenodd" clip-rule="evenodd" fill="#99CACB" d="M15.012,22.908c0.625,1.189,1.662,2.04,2.591,2.943
			c3.792,3.688,7.93,6.9,12.514,9.612c3.341,1.977,6.679,3.894,10.259,5.382c0.438,0.181,0.673,0.44,0.696,0.903
			c-5.68-0.13-11.362-0.237-17.041-0.398c-4.7-0.135-9.397-0.375-14.097-0.471c-1.142-0.023-1.485-0.329-1.493-1.473
			c-0.018-2.53-0.195-5.058-0.309-7.586c0.01-1.446,0.021-2.893,0.031-4.339c0.751-2.432,2.479-3.751,4.895-4.264
			C13.703,23.081,14.362,23.01,15.012,22.908z"/>
		<path fill-rule="evenodd" clip-rule="evenodd" fill="#EAE8EC" d="M131.323,46.038c-0.406,0.346-0.813,0.692-1.218,1.039
			c-2.78-2.147-5.723-4.058-8.67-5.96c-0.435-0.285-0.869-0.567-1.304-0.852c-8.6-5.476-17.102-11.141-26.676-14.857
			c-7.632-2.963-15.546-4.738-23.708-5.445c-3.912-0.339-7.825-0.68-11.75-0.586c-1.259,0.03-1.085-0.645-1.147-1.437
			c-0.082-1.039,0.526-0.852,1.163-0.829c6.346,0.227,12.678,0.593,18.993,1.345c7.398,0.88,14.348,3.168,21.119,6.148
			c10.744,4.728,20.648,10.959,30.625,17.061c1.055,0.645,2.07,1.372,3.176,1.909c0.948,0.46,0.915,0.907,0.276,1.555
			c-0.087,0.1-0.174,0.199-0.261,0.298C131.735,45.631,131.528,45.835,131.323,46.038z"/>
		<path fill-rule="evenodd" clip-rule="evenodd" fill="#DE2326" d="M-78.763,53.806c-0.996-0.454-1.262-1.06-0.794-2.164
			c0.438-1.032,1.035-2.122,0.603-3.348c0.375,0.03,0.654-0.198,0.656-0.509c0.014-1.639,1.382-2.686,1.748-4.218
			c0.438-1.834,2.525-2.569,4.333-1.833c0.559,0.954,0.908,2.036,1.737,2.823c0.111,0.25,0.222,0.501,0.333,0.751
			c-0.261,0.642,0.205,1.099,0.483,1.542c0.967,1.531,1.51,3.244,2.193,4.896c0.665,1.604,0.466,1.836-1.323,1.819
			c-0.256-0.002-0.515-0.034-0.77-0.019c-2.725,0.17-5.465-0.41-8.181,0.171C-78.085,53.747-78.424,53.777-78.763,53.806z"/>
		<path fill-rule="evenodd" clip-rule="evenodd" fill="#C6E6E7" d="M-1.019,36.179c-0.587,1.235-1.175,2.47-1.762,3.706
			c-3.479-2.436-6.632-5.221-9.196-8.631c2.37-1.388,4.99-2.242,7.433-3.475c0.266,0.019,0.502-0.04,0.668-0.269
			c2.75-0.917,5.501-1.833,8.603-2.866c-0.771,1.496-1.373,2.667-1.977,3.838c-1.191-0.84,0.558-1.352,0.147-2.192
			c-0.562-0.107-1.284-0.027-1.458,0.618c-0.807,2.995-2.514,5.677-3.006,8.776C-1.652,36.218-1.276,36.099-1.019,36.179z"/>
		<path fill-rule="evenodd" clip-rule="evenodd" fill="#181525" d="M64.612,37.72c0.065,0.069,0.087,0.15,0.064,0.242
			c0.01,1.64-0.253,3.342,1.338,4.78c-1.373-0.051-2.466-0.014-3.545-0.353c-0.608-0.19-1.146-0.341-1.854,0.14
			c-0.707,0.48-1.484,0.154-1.561-0.965c-0.235-3.433-1.299-6.694-2.071-10.02c-0.752-3.242-1.251-6.542-1.867-9.816
			c-0.051-0.273-0.053-0.582,0.221-0.663c0.489-0.145,1.067-0.288,1.452,0.16c0.662,0.769,1.571,1.518,1.808,2.423
			c1.022,3.896,3.383,7.289,4.102,11.301C62.89,36.021,63.334,37.243,64.612,37.72z"/>
		<path fill-rule="evenodd" clip-rule="evenodd" fill="#99CACB" d="M-11.977,31.254c2.564,3.41,5.716,6.195,9.196,8.631
			c-0.307,0.693-0.921,0.519-1.472,0.519c-3.249,0.002-6.507-0.141-9.745,0.056c-2.266,0.138-3.514-0.69-4.345-2.74
			c-0.956-2.352-1.075-2.33,1.063-3.638C-15.571,33.036-13.85,31.999-11.977,31.254z"/>
		<path fill-rule="evenodd" clip-rule="evenodd" fill="#181525" d="M56.117,42.375c-2.356,0.204-2.779-0.896-2.795-3.234
			c-0.013-1.922-0.402-3.842-0.625-5.764c-0.053-0.458-0.176-0.92-0.144-1.372c0.224-3.105-0.68-6.097-0.89-9.157
			c-0.048-0.697-0.159-1.412,0.788-1.549c0.883-0.128,1.765,0.01,1.915,1.065c0.687,4.813,2.055,9.489,2.845,14.281
			c0.191,1.16,0.481,2.302,0.729,3.453C58.411,42.281,58.334,42.378,56.117,42.375z"/>
		<path fill-rule="evenodd" clip-rule="evenodd" fill="#181525" d="M7.894,26.374c-0.735,1.987-0.676,4.023-0.531,5.947
			c0.141,1.888-0.05,3.81,0.365,5.668c0.23,1.03-0.027,1.839-0.782,2.481c-0.713,0.607-1.492,0.403-2.302,0.084
			c-1.041-0.41-2.163,0.081-3.277-0.299c-1.477-0.502-1.933-1.339-1.23-2.735c1.448-2.875,3.517-5.437,4.279-8.664
			c0.324-1.373,1.704-2.155,2.203-3.467c0.099-0.257,0.35-0.438,0.618-0.293C7.765,25.38,7.593,26.013,7.894,26.374z"/>
		<path fill-rule="evenodd" clip-rule="evenodd" fill="#EAE8EC" d="M114.899,44.857c-2.668-0.187-5.334-0.435-8.004-0.533
			c-1.118-0.042-1.645-0.507-1.672-1.531c-0.045-1.748-0.022-3.497-0.006-5.245c0.006-0.734,0.294-1.128,1.148-1.012
			c3.8,0.519,7.072,2.051,9.671,4.916c0.75,0.828,1.128,1.718,0.405,2.765C115.927,44.43,115.413,44.643,114.899,44.857z"/>
		<path fill-rule="evenodd" clip-rule="evenodd" fill="#EAE8EC" d="M184.698,54.473c-5.712-0.778-11.409-1.667-17.149-2.24
			c-9.831-0.981-19.598-2.524-29.451-3.345c-0.065-0.564,0.446-0.819,0.557-1.256c0.435-0.563,1.04-0.352,1.583-0.319
			c4.641,0.282,9.227,1.045,13.825,1.674c6.124,0.838,12.237,1.757,18.349,2.684c4.532,0.687,13.003,2.151,17.605,3.548
			C189.679,55.639,189.964,55.736,184.698,54.473z"/>
		<path fill-rule="evenodd" clip-rule="evenodd" fill="#DE2326" d="M54.416,7.669c2.219,0,4.438,0.022,6.655-0.009
			c1.048-0.015,1.889,0.454,2.721,0.979c0.303,0.191,0.654,0.393,0.491,0.844c-0.133,0.366-0.497,0.278-0.788,0.344
			c-2.771,0.632-5.624,0.758-8.395,1.438c-1.082,0.266-2.362,0.425-3.429-0.383c-0.116-0.087-0.303-0.164-0.434-0.137
			c-2.42,0.497-4.58-1.03-6.953-0.888c-0.402,0.024-0.912,0.059-1.013-0.456c-0.081-0.411,0.37-0.552,0.657-0.767
			c1.098-0.826,2.392-0.935,3.677-0.963c2.269-0.051,4.541-0.015,6.811-0.015C54.416,7.661,54.416,7.665,54.416,7.669z"/>
		<path fill-rule="evenodd" clip-rule="evenodd" fill="#6A686D" d="M-1.082,57.529c1.988,4.013,3.978,8.024,5.967,12.036
			c-2.372,0.07-3.451-1.74-4.717-3.264c-0.254-0.308-0.426-0.683-0.636-1.025c-0.026-0.238-0.077-0.464-0.32-0.584
			c-0.08-0.313-0.161-0.627-0.24-0.939c-0.395-1.625-0.491-3.272-0.369-4.936C-1.002,58.458-1.178,57.96-1.082,57.529z"/>
		<path fill-rule="evenodd" clip-rule="evenodd" fill="#C7C2C8" d="M49.794,11.459c-0.291,0.38-0.756,0.712-0.795,1.088
			c-0.199,1.912-1.533,1.761-2.861,1.71c-0.72-0.027-1.442,0.03-2.159-0.016c-0.645-0.042-1.641,0.33-1.857-0.232
			c-0.352-0.917-0.271-2.013,0.063-3.01c0.083-0.248,0.232-0.474,0.546-0.438c1.494,0.175,3.095-0.495,4.475,0.592
			C47.974,11.758,48.899,11.237,49.794,11.459z"/>
		<path fill-rule="evenodd" clip-rule="evenodd" fill="#C7C2C8" d="M57.906,11.717c2.293,0.181,4.078-1.424,6.278-1.234
			c1.95,0.168,1.486,1.323,1.683,2.402c0.279,1.525-0.696,1.388-1.645,1.365c-0.567-0.014-1.136,0.011-1.703-0.001
			c-1.614-0.034-3.584,0.636-3.905-1.993C58.589,12.05,58.151,11.895,57.906,11.717z"/>
		<path fill-rule="evenodd" clip-rule="evenodd" fill="#6A686D" d="M57.45,14.123c-0.59,0.054-1.002-0.167-1.414-0.384
			c-1.54-0.812-3.089-0.754-4.568,0.087c-0.604,0.344-1.181,0.371-1.772,0.219c-0.362-0.093-0.28-0.528-0.195-0.809
			c0.232-0.764,0.826-0.973,1.566-0.968c1.86,0.012,3.72,0.005,5.581-0.002c0.49-0.002,0.905,0.132,1.244,0.507
			c0.284,0.313,0.614,0.621,0.419,1.078C58.127,14.28,57.686,14.081,57.45,14.123z"/>
		<path fill-rule="evenodd" clip-rule="evenodd" fill="#545454" d="M30.14,42.19c-10.521,0.142-21.048-0.296-31.567-1.022
			C9.095,41.508,19.617,41.85,30.14,42.19z"/>
		<path fill-rule="evenodd" clip-rule="evenodd" fill="#858585" d="M12.227,22.212c2.112-0.867,4.386-0.992,6.599-1.323
			c4.955-0.744,9.97-0.852,14.97-1.091c0.243-0.011,0.512-0.043,0.707,0.227c-0.221,0.519-0.703,0.294-1.044,0.294
			c-6.621,0.014-13.175,0.73-19.696,1.824c-0.504,0.085-1.03,0.039-1.546,0.053L12.227,22.212z"/>
		<path fill-rule="evenodd" clip-rule="evenodd" fill="#EAE8EC" d="M-1.019,36.179c-0.257-0.08-0.632,0.039-0.547-0.495
			c0.492-3.099,2.199-5.781,3.006-8.776c0.173-0.645,0.896-0.726,1.458-0.618c0.411,0.84-1.338,1.353-0.147,2.192
			c-0.001,0.108-0.05,0.184-0.147,0.229c-0.304,0.026-0.711-0.052-0.833,0.277c-0.604,1.625-1.688,3.03-2.129,4.728
			c-0.08,0.306,0.003,0.491,0.256,0.636C-0.408,34.96-0.714,35.57-1.019,36.179z"/>
		<path fill-rule="evenodd" clip-rule="evenodd" fill="#545454" d="M58.471,43.179c-9.103,0.133-18.186-0.62-27.286-0.653
			C40.291,42.247,49.377,42.868,58.471,43.179z"/>
		<path fill-rule="evenodd" clip-rule="evenodd" fill="#6A686D" d="M77.169,21.795c-7.442-0.891-14.903-1.523-22.401-1.613
			C62.291,19.918,69.77,20.293,77.169,21.795z"/>
		<path fill-rule="evenodd" clip-rule="evenodd" fill="#858585" d="M-18.964,38.212c0.962,2.398,2.705,3.147,5.266,2.996
			c3.646-0.215,7.314-0.054,10.975,0.211c-2.792,0-5.583,0-8.375,0c-1.291,0-2.582,0-3.873-0.003
			c-2.949-0.007-3.229-0.207-4.231-3.004C-19.123,38.344-19.043,38.278-18.964,38.212z"/>
		<path fill-rule="evenodd" clip-rule="evenodd" fill="#545454" d="M81.394,44.42c-5.416,0.221-10.779-0.598-16.179-0.717
			C70.629,43.539,76.008,44.05,81.394,44.42z"/>
		<path fill-rule="evenodd" clip-rule="evenodd" fill="#858585" d="M44.428,20.209c-3.087,0-6.173,0-9.26,0
			c0-0.135,0-0.271-0.001-0.406c3.093,0,6.186,0,9.279,0C44.44,19.938,44.433,20.073,44.428,20.209z"/>
		<path fill-rule="evenodd" clip-rule="evenodd" fill="#858585" d="M56.167,15.392c-1.381,0-2.602,0.005-3.821-0.005
			c-0.231-0.002-0.557,0.105-0.64-0.22c-0.039-0.157,0.058-0.395,0.168-0.537C52.668,13.609,55.564,14.028,56.167,15.392z"/>
		<path fill-rule="evenodd" clip-rule="evenodd" fill="#6A686D" d="M44.428,20.209c0.005-0.135,0.012-0.271,0.018-0.406
			c2.925-0.123,5.842-0.063,8.744,0.406C50.269,20.31,47.349,20.434,44.428,20.209z"/>
		<path fill-rule="evenodd" clip-rule="evenodd" fill="#C6E6E7" d="M-0.104,34.351c-0.253-0.145-0.336-0.33-0.256-0.636
			c0.441-1.697,1.526-3.103,2.129-4.728c0.122-0.329,0.529-0.251,0.833-0.277C1.865,30.67,0.893,32.516-0.104,34.351z"/>
		<path fill-rule="evenodd" clip-rule="evenodd" fill="#6A686D" d="M12.216,22.197c-1.605,0.813-3.367,0.984-5.119,1.193
			c1.677-0.53,3.3-1.285,5.129-1.177C12.227,22.212,12.216,22.197,12.216,22.197z"/>
		<path fill-rule="evenodd" clip-rule="evenodd" fill="#6A686D" d="M77.874,22.14c1.829-0.149,3.536,0.251,5.168,1.03
			C81.32,22.827,79.597,22.484,77.874,22.14z"/>
		<path fill-rule="evenodd" clip-rule="evenodd" fill="#6A686D" d="M64.415,43.533c-1.604-0.097-3.231,0.292-4.773-0.293
			C61.232,43.494,62.856,43.179,64.415,43.533z"/>
		<path fill-rule="evenodd" clip-rule="evenodd" fill="#545454" d="M83.347,44.632c1.515,0,3.03,0,4.546,0
			c-0.001,0.05-0.001,0.101-0.001,0.15c-1.525,0-3.05,0-4.575,0C83.328,44.733,83.338,44.682,83.347,44.632z"/>
		<path fill-rule="evenodd" clip-rule="evenodd" fill="#6A686D" d="M3.539,24.077c0.8-0.417,1.631-0.692,2.58-0.521
			c-0.366,0.198,0.188,1.923-1.126,0.595c-0.257-0.261-0.968-0.073-1.47-0.092L3.539,24.077z"/>
		<path fill-rule="evenodd" clip-rule="evenodd" fill="#858585" d="M-19.201,38.411c-0.561-1.036-1.229-2.05-0.745-3.314
			c0.081,1.118,0.653,2.081,0.981,3.115C-19.043,38.278-19.123,38.344-19.201,38.411z"/>
		<path fill-rule="evenodd" clip-rule="evenodd" fill="#3E3E3E" d="M8.164,27.482c-0.011,1.447-0.021,2.893-0.031,4.339
			C7.759,30.372,7.677,28.925,8.164,27.482z"/>
		<path fill-rule="evenodd" clip-rule="evenodd" fill="#545454" d="M89.644,44.746c1.073,0.062,2.145,0.125,3.216,0.188
			C91.778,45.086,90.686,45.389,89.644,44.746z"/>
		<path fill-rule="evenodd" clip-rule="evenodd" fill="#545454" d="M-3.876,27.51c-0.166,0.229-0.402,0.287-0.668,0.269
			c-0.091-0.431-0.645-0.168-0.8-0.525c0.279-0.419,0.733-0.511,1.156-0.656c0.104,0.107,0.209,0.213,0.313,0.321
			C-3.962,27.115-4.229,27.312-3.876,27.51z"/>
		<path fill-rule="evenodd" clip-rule="evenodd" fill="#6A686D" d="M-0.763,25.677c-0.743,0.549-1.647,0.655-2.497,0.916
			c-0.048-0.058-0.095-0.117-0.139-0.178c0.691-0.75,1.646-0.708,2.541-0.849C-0.857,25.567-0.763,25.677-0.763,25.677z"/>
		<path fill-rule="evenodd" clip-rule="evenodd" fill="#6A686D" d="M83.659,23.339c0.348-0.254,0.584-0.222,0.818-0.11
			c0.012,0.005-0.034,0.183-0.049,0.183C84.207,23.401,83.986,23.374,83.659,23.339z"/>
		<path fill-rule="evenodd" clip-rule="evenodd" fill="#6A686D" d="M0.693,24.949c0.174-0.222,0.403-0.309,0.674-0.246
			c0.061,0.014,0.102,0.118,0.152,0.181c-0.241,0.06-0.483,0.12-0.724,0.181L0.693,24.949z"/>
		<path fill-rule="evenodd" clip-rule="evenodd" fill="#6A686D" d="M0.164,25.362c-0.254,0.271-0.591,0.292-0.929,0.314
			c0.001,0.001-0.093-0.109-0.094-0.11c0.211-0.317,0.559-0.306,0.878-0.364C0.069,25.256,0.116,25.309,0.164,25.362z"/>
		<path fill-rule="evenodd" clip-rule="evenodd" fill="#6A686D" d="M-3.874,26.919c-0.104-0.107-0.209-0.213-0.313-0.321
			c0.264-0.06,0.527-0.121,0.79-0.182c0.042,0.06,0.09,0.119,0.138,0.177C-3.386,26.848-3.634,26.876-3.874,26.919z"/>
		<path fill-rule="evenodd" clip-rule="evenodd" fill="#3E3E3E" d="M105.993,45.948c-0.09,0.04-0.171,0.106-0.25,0.102
			c-0.076-0.005-0.147-0.083-0.22-0.128c0.079-0.036,0.161-0.104,0.238-0.101C105.837,45.823,105.91,45.898,105.993,45.948z"/>
		<path fill-rule="evenodd" clip-rule="evenodd" fill="#6A686D" d="M3.523,24.058c-0.051,0.218-0.195,0.292-0.402,0.249
			c-0.035-0.007-0.057-0.069-0.086-0.106c0.168-0.042,0.336-0.083,0.505-0.124L3.523,24.058z"/>
		<path fill-rule="evenodd" clip-rule="evenodd" fill="#6A686D" d="M2.461,24.493c-0.07,0.056-0.132,0.142-0.189,0.139
			c-0.071-0.003-0.137-0.081-0.206-0.127c0.038-0.032,0.08-0.094,0.113-0.091C2.271,24.424,2.358,24.462,2.461,24.493z"/>
		<path fill-rule="evenodd" clip-rule="evenodd" fill="#6A686D" d="M0.795,25.065c-0.21,0.099-0.421,0.197-0.631,0.296
			c-0.048-0.052-0.095-0.105-0.144-0.159c0.224-0.084,0.449-0.168,0.673-0.252C0.693,24.949,0.795,25.065,0.795,25.065z"/>
		<path fill-rule="evenodd" clip-rule="evenodd" fill="#545454" d="M94.564,26.721c-0.041,0.024-0.082,0.048-0.122,0.072
			c-0.031-0.054-0.063-0.108-0.095-0.162c0.048-0.006,0.103-0.027,0.144-0.013C94.523,26.63,94.54,26.685,94.564,26.721z"/>
		<path fill-rule="evenodd" clip-rule="evenodd" fill="#545454" d="M95.663,27.175c-0.135-0.028-0.269-0.056-0.404-0.084
			c0.034-0.055,0.067-0.109,0.101-0.165c0.104,0.08,0.208,0.159,0.312,0.239L95.663,27.175z"/>
		<path fill-rule="evenodd" clip-rule="evenodd" fill="#545454" d="M95.672,27.165c0.141,0.042,0.283,0.084,0.425,0.126
			c-0.03,0.04-0.081,0.116-0.085,0.114c-0.119-0.072-0.234-0.152-0.349-0.23L95.672,27.165z"/>
		<path fill-rule="evenodd" clip-rule="evenodd" fill="#545454" d="M-6.475,27.699c0.136-0.149,0.376-0.298,0.469-0.115
			c0.127,0.25-0.198,0.203-0.338,0.271C-6.389,27.803-6.433,27.752-6.475,27.699z"/>
		<path fill-rule="evenodd" clip-rule="evenodd" fill="#545454" d="M-6.344,27.855C-6.483,28-6.718,28.181-6.82,27.99
			c-0.133-0.246,0.217-0.195,0.345-0.291C-6.433,27.752-6.389,27.803-6.344,27.855z"/>
		<path fill-rule="evenodd" clip-rule="evenodd" fill="#545454" d="M98.222,28.385c-0.091-0.047-0.173-0.09-0.255-0.132
			c0.036-0.035,0.083-0.104,0.107-0.098c0.086,0.026,0.166,0.078,0.247,0.12C98.288,28.312,98.254,28.35,98.222,28.385z"/>
		<path fill-rule="evenodd" clip-rule="evenodd" fill="#545454" d="M-8.573,28.719c0.097-0.081,0.195-0.161,0.292-0.242
			c0.034,0.051,0.067,0.103,0.102,0.154c-0.129,0.031-0.258,0.062-0.388,0.092L-8.573,28.719z"/>
		<path fill-rule="evenodd" clip-rule="evenodd" fill="#545454" d="M-8.569,28.723c-0.101,0.079-0.202,0.158-0.303,0.238
			c-0.032-0.054-0.064-0.107-0.098-0.161c0.132-0.027,0.264-0.055,0.396-0.082L-8.569,28.723z"/>
		<path fill-rule="evenodd" clip-rule="evenodd" fill="#545454" d="M-9.918,29.153c0.042-0.017,0.091-0.054,0.127-0.045
			c0.139,0.033,0.155,0.104,0.037,0.171c-0.032,0.019-0.098,0.001-0.134-0.021C-9.91,29.244-9.908,29.19-9.918,29.153z"/>
		<path fill-rule="evenodd" clip-rule="evenodd" fill="#545454" d="M3.195,29.632c0.034-0.139,0.069-0.278,0.103-0.417
			c0.058,0.038,0.116,0.075,0.173,0.113C3.39,29.441,3.31,29.553,3.23,29.665L3.195,29.632z"/>
		<path fill-rule="evenodd" clip-rule="evenodd" fill="#545454" d="M2.589,30.885c0.027-0.138,0.055-0.276,0.083-0.414
			c0.056,0.034,0.112,0.068,0.168,0.101c-0.08,0.109-0.159,0.218-0.237,0.327L2.589,30.885z"/>
		<path fill-rule="evenodd" clip-rule="evenodd" fill="#858585" d="M-19.257,34.46c-0.059,0.05-0.112,0.131-0.17,0.135
			c-0.052,0.003-0.109-0.078-0.164-0.122c0.032-0.032,0.068-0.092,0.096-0.089C-19.416,34.394-19.341,34.43-19.257,34.46z"/>
		<path fill-rule="evenodd" clip-rule="evenodd" fill="#3E3E3E" d="M-18.166,41.753c-0.108,0-0.217-0.001-0.325-0.003
			C-18.38,41.496-18.272,41.55-18.166,41.753z"/>
		<path fill-rule="evenodd" clip-rule="evenodd" fill="#C6E6E7" d="M110.646,36.39c0.054,0.077,0.107,0.154,0.162,0.231
			c-0.129,0.028-0.258,0.056-0.388,0.084C110.495,36.601,110.57,36.495,110.646,36.39z"/>
		<path fill-rule="evenodd" clip-rule="evenodd" fill="#545454" d="M2.604,30.899c-0.053,0.05-0.107,0.1-0.161,0.15
			c0.048-0.054,0.098-0.109,0.146-0.164L2.604,30.899z"/>
		<polygon fill-rule="evenodd" clip-rule="evenodd" fill="#545454" points="-13.39,31.109 -13.428,31.02 -13.331,31.031 		"/>
		<polygon fill-rule="evenodd" clip-rule="evenodd" fill="#545454" points="-11.579,30.108 -11.486,30.082 -11.497,30.158 		"/>
		<path fill-rule="evenodd" clip-rule="evenodd" fill="#545454" d="M3.23,29.665c-0.056,0.049-0.112,0.097-0.168,0.146
			c0.045-0.06,0.089-0.119,0.134-0.179C3.195,29.632,3.23,29.665,3.23,29.665z"/>
		<polygon fill-rule="evenodd" clip-rule="evenodd" fill="#545454" points="-10.956,29.799 -10.872,29.776 -10.882,29.844 		"/>
		<polygon fill-rule="evenodd" clip-rule="evenodd" fill="#545454" points="97.29,27.938 97.41,27.903 97.4,27.997 		"/>
		<polygon fill-rule="evenodd" clip-rule="evenodd" fill="#545454" points="96.826,27.648 96.72,27.681 96.73,27.592 		"/>
		<path fill-rule="evenodd" clip-rule="evenodd" fill="#AAA6AA" d="M132.552,72.582c0.099-0.146,0.198-0.293,0.297-0.439
			c-0.261,5.344-0.181,10.734-2.404,15.789c-0.361,0.82-0.748,1.158-1.692,1.154c-13.171-0.039-26.343-0.035-39.514-0.037
			c-9.448,0-18.896-0.025-28.343,0.039c-1.464,0.01-1.681-0.389-1.11-1.613c1.875-4.029,1.964-8.4,2.331-12.703
			c0.092-1.078,0.257-1.498,1.48-1.469c7.483,0.186,14.969,0.273,22.454,0.395c3.944-0.047,5.384,0.225,6.356,0.244
			c12.524,0.25,25.05,0.457,37.574,0.73C131.555,74.707,132.447,74.209,132.552,72.582z"/>
		<path fill-rule="evenodd" clip-rule="evenodd" fill="#AAA6AA" d="M6.686,72.442c0.41-0.1,0.82-0.199,1.23-0.299
			c11.11,0.225,22.221,0.449,33.333,0.672c6.354,0.129,12.707,0.256,19.061,0.381c0.618,0.014,1.305-0.127,1.192,0.898
			c-0.487,4.451-0.536,8.951-2.305,13.213c-0.587,1.414-1.24,1.787-2.642,1.779c-9.146-0.049-18.293-0.023-27.44-0.016
			c-0.771,0.002-1.543,0.068-2.315,0.105c-2.341-0.115-4.683-0.135-7.024,0.002c-0.438,0.217-0.799,0.164-1.037-0.197
			c-3.354-0.568-4.772-3.205-6.225-5.813c-1.937-3.477-3.887-6.947-5.832-10.42C6.671,72.647,6.672,72.545,6.686,72.442z"/>
		<path fill-rule="evenodd" clip-rule="evenodd" fill="#29282A" d="M131.323,46.038c0.206-0.203,0.412-0.407,0.618-0.61
			c0.224,0.503,1.022,0.254,1.194,1.085C132.537,45.994,131.85,46.533,131.323,46.038z"/>
		<path fill-rule="evenodd" clip-rule="evenodd" fill="#EAE8EC" d="M-82.712,62.231c0.211-0.204,0.421-0.407,0.633-0.61
			c1.181-0.681,1.678-2.404,3.414-2.239c0.083,0.119,0.165,0.238,0.247,0.358c-3.472,2.717-6.618,5.688-7.871,10.155
			c-0.146-1.672,0.532-3.1,1.106-4.556C-84.359,64.304-83.535,63.267-82.712,62.231z"/>
		<path fill-rule="evenodd" clip-rule="evenodd" fill="#6A686D" d="M183.829,93.369c-0.246-0.174-0.404-0.396-0.402-0.711
			l0.061-0.061c0.207,0.012,0.412,0.023,0.617,0.033c0.018,0.209,0.033,0.418,0.053,0.625
			C184.048,93.293,183.939,93.33,183.829,93.369z"/>
		<path fill-rule="evenodd" clip-rule="evenodd" fill="#181525" d="M-52.323,76.166c3.177-3.221,6.358-6.436,9.523-9.666
			c0.417-0.426,1.021-0.748,1.014-1.474c1.187-0.002,2.374-0.014,3.561-0.002c0.392,0.004,0.883-0.12,1.046,0.412
			c0.142,0.462,0.095,0.923-0.27,1.296c-0.216,0.223-0.424,0.453-0.65,0.664c-1.887,1.76-3.543,3.729-5.221,5.68
			c-0.964,1.123-1.656,2.371-1.838,3.838c-0.127,1.021-0.633,1.459-1.623,1.443c-1.368-0.02-2.822,0.289-3.764-1.16
			C-50.951,76.573-52.04,77.049-52.323,76.166z"/>
		<path fill-rule="evenodd" clip-rule="evenodd" fill="#C7C2C8" d="M-66.306,54.48c0.398,1.227,0.796,2.454,1.194,3.682
			c-3.169,0.001-6.337,0.003-9.507,0.005c-1.466-0.229-2.939-0.264-4.406-0.048c-0.911,0.135-1.367-0.363-1.192-1.097
			c0.218-0.922-0.036-1.823,0.146-2.717c0.126-0.028,0.252-0.056,0.378-0.084c0.679,0.394,1.306-0.038,1.955-0.121
			c1.659,0.439,3.341-0.004,5.016,0.149C-70.594,54.447-68.437,54.126-66.306,54.48z"/>
		<path fill-rule="evenodd" clip-rule="evenodd" fill="#181525" d="M-0.789,64.692c0.243,0.12,0.294,0.346,0.32,0.584
			c-0.213,0.308-0.449,0.861-0.844,0.359C-1.634,65.228-1.401,64.769-0.789,64.692z"/>
		<path fill-rule="evenodd" clip-rule="evenodd" fill="#181525" d="M-53.258,77.412c0.372,0.045,0.742,0.131,0.817,0.561
			c0.044,0.248-0.189,0.371-0.401,0.322C-53.328,78.184-53.207,77.75-53.258,77.412C-53.258,77.412-53.258,77.412-53.258,77.412z"/>
		<path fill-rule="evenodd" clip-rule="evenodd" fill="#C6E6E7" d="M202.353,58.555c1.061,0.829,2.271,1.481,3.104,2.585
			c0.523,1.193,1.047,2.389,1.572,3.582c0.291,0.752,0.584,1.505,0.902,2.323c-2.104,0.256-4.088-0.646-6.143-0.43
			c-0.791-0.543-1.67-0.371-2.535-0.309c-0.803-0.186-1.605-0.373-2.41-0.56c0.217-0.109,0.537-0.162,0.395-0.514
			c-0.035-0.087-0.297-0.182-0.373-0.137c-0.33,0.191-0.029,0.436-0.012,0.66c-1.736-0.012-3.184-0.664-4.408-1.892
			c-0.98-0.984-1.984-1.951-3.037-2.857c-0.932-0.804-0.957-1.76-0.336-2.609c1.275-1.749,2.82-3.173,5.24-2.976
			C196.993,56.467,199.673,57.511,202.353,58.555z M195.511,64.16c0.877,0.719,1.818,0.524,2.768,0.189
			c0.695,0.18-0.303,1.159,0.643,1.291c0.879,0.12,1.199-0.571,1.598-1.022c0.873-0.993,0.215-5.112-0.873-5.857
			c-0.508-0.348-1.053-0.476-1.439,0.197c-0.09,0.156-0.018,0.487-0.34,0.334c-0.158-0.076-0.381-0.356-0.342-0.451
			c0.57-1.427-0.428-1.259-1.258-1.268c-0.068-0.627-0.383-1.042-1.012-1.202c-1.158-0.296-3.002,0.781-3.629,2.124
			c-0.695,1.493-0.371,2.522,1.094,3.472C193.507,62.881,194.366,63.7,195.511,64.16z"/>
		<path fill-rule="evenodd" clip-rule="evenodd" fill="#C7C2C8" d="M196.853,65.757c-0.018-0.225-0.318-0.469,0.012-0.66
			c0.076-0.045,0.338,0.05,0.373,0.137c0.143,0.352-0.178,0.404-0.395,0.514L196.853,65.757z"/>
		<path fill-rule="evenodd" clip-rule="evenodd" fill="#545454" d="M-77.739,54.1c-0.649,0.083-1.276,0.515-1.955,0.121
			c0.301-0.16,0.773,0.064,0.931-0.415c0.338-0.029,0.678-0.059,1.017-0.087C-77.743,53.847-77.741,53.973-77.739,54.1z"/>
		<path fill-rule="evenodd" clip-rule="evenodd" fill="#181525" d="M87.942,73.625c-0.287-0.797-0.234-2.199-0.12-3
			c0.856,0.008,5.636,0.063,7.601,0.078c4.378,0.029,8.706,0.268,13.083,0.346c7.167,0.127,14.331,0.332,21.498,0.449
			c1.056,0.018,1.904,0.238,2.548,1.084c-0.105,1.627-0.997,2.125-2.573,2.09c-12.524-0.273-25.049-0.48-37.574-0.73
			C91.434,73.922,88.912,73.735,87.942,73.625z"/>
		<path fill-rule="evenodd" clip-rule="evenodd" fill="#181525" d="M94.04,60.36c-1.502,0.541-2.775,1.101-3.987-0.429
			c-0.516-0.649-1.596-0.785-2.43-0.233c-0.849,0.563-0.678,1.435-0.448,2.246c0.325,1.142,0.687,2.281,1.502,3.186
			c0.58,0.644,1.35,0.982,2.21,0.938c0.978-0.054,1.509-0.58,1.386-1.628c-0.024-0.203,0.045-0.373,0.307-0.442
			c0.593-0.158,2.902,0.897,3.038,1.414c0.301,1.152-0.604,2.832-1.679,3.123c-5.192,1.4-10.784-3.041-10.66-8.467
			c0.045-1.962,1.333-3.198,3.506-3.364C89.863,56.466,92.227,57.642,94.04,60.36z"/>
		<path fill-rule="evenodd" clip-rule="evenodd" fill="#181525" d="M104.84,61.335c1.501,0.521,3.064,0.324,4.582,0.255
			c1.296-0.059,1.677,0.582,1.974,1.601c0.199,0.679,0.087,0.924-0.663,0.903c-1.48-0.044-2.963-0.014-4.447-0.014
			c0.053,1.74,0.825,2.471,2.519,2.219c0.65-0.096,1.335,0.039,2.005,0.072c2.384,0.119,2.384,0.121,3.014,2.563
			c-1.84,0.266-3.667,0.01-5.484,0.014c-0.98,0.002-1.967-0.154-2.936-0.072c-1.033,0.088-1.429-0.359-1.695-1.279
			c-0.669-2.32-1.429-4.612-2.153-6.915c0.067-1.207,0.457-1.552,1.447-0.597C103.536,60.599,103.929,61.361,104.84,61.335z"/>
		<path fill-rule="evenodd" clip-rule="evenodd" fill="#181525" d="M70.722,56.613c1.088,0,2.007,0.029,2.924-0.01
			c0.627-0.027,0.756,0.38,0.909,0.834c1.115,3.304,2.232,6.606,3.364,9.903c0.247,0.719,0.119,0.975-0.721,0.984
			c-2.505,0.033-2.511,0.074-3.303-2.264C72.847,62.96,71.81,59.855,70.722,56.613z"/>
		<path fill-rule="evenodd" clip-rule="evenodd" fill="#29282A" d="M66.891,48.181c0.995,0.175,1.978-0.278,3.089-0.993
			c2.334-1.501,4.901-1.35,7.352-0.065c0.755,0.397,1.357,0.99,2.264,1.217c0.978,0.244,1.236,2.339,0.313,2.72
			c-2.034,0.838-3.71,2.621-6.179,2.38c-1.712-0.167-3.388-0.349-4.677-1.656c-0.369-0.374-0.812-0.371-1.287-0.365
			c-0.979,0.016-1.959-0.012-2.939-0.011c-1.097,0.002-1.639-0.641-1.636-1.635c0.001-0.937,0.591-1.52,1.56-1.583
			C65.368,48.148,65.989,48.181,66.891,48.181z M71.771,50.759c0-0.004,0-0.008,0-0.012c2.213,0,4.427-0.013,6.64,0.008
			c0.68,0.007,1.191-0.013,1.206-0.934c0.016-0.931-0.498-0.951-1.181-0.95c-4.374,0.015-8.747,0.007-13.121,0.016
			c-0.595,0.002-1.284-0.137-1.335,0.83c-0.054,1.01,0.592,1.043,1.306,1.043C67.448,50.758,69.609,50.759,71.771,50.759z
			 M70.198,48.068c2.322,0,4.646,0,6.969,0C74.824,46.573,72.488,46.585,70.198,48.068z M77.268,51.503c-2.47,0-4.789,0-7.229,0
			C72.07,53.097,75.383,53.09,77.268,51.503z"/>
		<path fill-rule="evenodd" clip-rule="evenodd" fill="#181525" d="M104.84,61.335c-0.911,0.025-1.304-0.427-1.837-0.939
			c-0.991-0.956-1.38-0.922-1.447,0.285c-0.128-0.33-0.268-0.654-0.38-0.988c-0.833-2.47-0.832-2.474,1.723-2.458
			c1.951,0.013,3.901,0.02,5.852,0.063c0.37,0.009,0.843-0.218,1.102,0.283c-2.626,0.056-2.039-0.429-2.088,2.137
			c-0.25,0-0.811,0.021-1.059-0.003C105.507,59.598,104.553,59.75,104.84,61.335z"/>
		<path fill-rule="evenodd" clip-rule="evenodd" fill="#181525" d="M107.453,59.718c0.049-2.565-0.228-2.081,2.398-2.137
			c0.892,2.224,0.892,2.226-1.493,2.188C108.056,59.765,107.756,59.737,107.453,59.718z"/>
		<path fill-rule="evenodd" clip-rule="evenodd" fill="#29282A" d="M-77.739,54.1c-0.002-0.127-0.004-0.253-0.006-0.381
			c2.716-0.582,5.457-0.002,8.182-0.172c0.255-0.016,0.514,0.017,0.77,0.019c1.79,0.017,1.988-0.216,1.323-1.819
			c-0.684-1.651-1.415-3.398-2.381-4.931c-0.28-0.442-1.036-2.149-0.776-2.792c0.729-0.303,1.535,1.507,1.894,1.966
			c-0.002,1.604,0.967,2.848,1.58,4.22c0.393,0.88,0.855,1.729,1.278,2.595c0.332,0.676,0.362,1.283-0.43,1.676
			c-2.13-0.354-4.288-0.033-6.417-0.23C-74.398,54.096-76.08,54.539-77.739,54.1z"/>
		<path fill-rule="evenodd" clip-rule="evenodd" fill="#181525" d="M45.229,67.803c-4.653-0.012-8.479-3.659-8.737-8.328
			c-0.116-2.101,1.198-3.518,3.466-3.74c4.878-0.477,9.385,3.558,9.491,8.497C49.499,66.547,48.007,67.811,45.229,67.803z
			 M45.734,63.525c0.014-1.566-1.087-3.842-2.237-4.529c-0.867-0.519-1.819-0.873-2.746-0.224c-0.892,0.626-0.534,1.529-0.361,2.393
			c0.175,0.877,0.543,1.664,1.019,2.384c0.657,1,1.603,1.569,2.853,1.509C45.24,65.011,45.805,64.575,45.734,63.525z"/>
		<path fill-rule="evenodd" clip-rule="evenodd" fill="#181525" d="M18.869,55.682c1.482,0,4.411,0,5.786,0
			c2.557,0.103,4.38,1.635,4.899,4.116c0.394,1.883-0.449,2.964-2.402,3.079c-2.71,0.16-2.711,0.161-1.865,2.71
			c0.16,0.483,0.323,0.964,0.481,1.437c-0.14,0.08-0.223,0.164-0.307,0.166c-3.268,0.082-3.268,0.08-4.279-3.381
			C21.096,63.233,19.451,57.617,18.869,55.682z M22.76,57.948c0.246,0.764,0.484,1.378,0.64,2.014
			c0.153,0.624,0.607,0.614,1.068,0.588c0.536-0.033,1.183,0.105,1.423-0.591c0.158-0.455,0.036-0.882-0.293-1.268
			C24.865,57.831,23.902,57.908,22.76,57.948z"/>
		<path fill-rule="evenodd" clip-rule="evenodd" fill="#29282A" d="M4.135,51.441c-1.337-0.009-2.675-0.04-4.012-0.02
			c-1.064,0.016-1.708-0.488-1.742-1.52c-0.036-1.092,0.564-1.725,1.715-1.724c0.566,0,1.134-0.029,1.699,0.002
			c1.2,0.067,2.187-0.213,3.264-0.921c2.371-1.56,4.962-1.439,7.467-0.123c0.747,0.392,1.421,0.875,2.217,1.226
			c1.093,0.482,1.082,1.599,0.294,2.564c-0.085-0.585,0.115-1.221-0.308-1.747c-0.119-0.085-0.238-0.244-0.358-0.244
			C9.619,48.908,4.865,48.9,0.112,48.88c-0.639-0.003-0.964,0.287-0.969,0.924c-0.005,0.639,0.334,0.941,0.959,0.946
			c1.343,0.012,2.687,0.022,4.03,0.034C4.133,51.002,4.134,51.221,4.135,51.441z M5.324,48.047c2.34,0,4.679,0,7.018,0
			C9.997,46.641,7.656,46.531,5.324,48.047z"/>
		<path fill-rule="evenodd" clip-rule="evenodd" fill="#6A686D" d="M14.73,49.179c0.423,0.526,0.223,1.162,0.308,1.747
			c-1.15,0.662-2.3,1.324-3.45,1.986c-0.185-0.489-0.646-0.191-0.953-0.336c0.559-0.36,1.402-0.265,1.785-1.078
			c-2.457,0-4.819,0-7.496,0c0.64,0.438,1.013,0.692,1.386,0.947c0.011,0.144,0.021,0.288,0.032,0.432
			c-0.95-0.149-1.744-0.539-2.207-1.437c-0.001-0.22-0.002-0.438-0.003-0.656c2.96-0.001,5.921-0.055,8.878,0.023
			C14.257,50.84,14.976,50.592,14.73,49.179z"/>
		<path fill-rule="evenodd" clip-rule="evenodd" fill="#29282A" d="M10.635,52.576c0.306,0.145,0.768-0.153,0.953,0.336
			c-1.753,0.61-3.502,0.778-5.246-0.035c-0.011-0.144-0.021-0.288-0.032-0.432C7.739,52.909,9.191,52.633,10.635,52.576z"/>
		<path fill-rule="evenodd" clip-rule="evenodd" fill="#FFFFFF" d="M50.542,36.779c-0.988-4.917-1.896-9.469-2.827-14.016
			c-0.104-0.508-0.033-0.821,0.528-0.85c0.568-0.029,1.12-0.102,1.207,0.767c0.268,2.697,0.712,5.38,0.869,8.082
			C50.427,32.649,50.964,34.52,50.542,36.779z"/>
		<path fill-rule="evenodd" clip-rule="evenodd" fill="#EAE8EC" d="M80.777,24.669c7.761,1.121,14.566,4.811,21.599,7.886
			c-0.07,0.188-0.14,0.376-0.209,0.565c-7.15-2.689-14.3-5.378-21.45-8.067C80.737,24.926,80.758,24.798,80.777,24.669z"/>
		<path fill-rule="evenodd" clip-rule="evenodd" fill="#EAE8EC" d="M102.811,33.294c0.606-0.208,0.88,0.018,1.151,0.396
			C103.519,33.826,103.197,33.731,102.811,33.294z"/>
		<path fill-rule="evenodd" clip-rule="evenodd" fill="#6A686D" d="M183.173,92.301c0.105,0.098,0.209,0.199,0.314,0.297
			l-0.061,0.061c-0.1-0.105-0.195-0.213-0.295-0.318L183.173,92.301z"/>
		<path fill-rule="evenodd" clip-rule="evenodd" fill="#6A686D" d="M192.72,61.968c-1.465-0.95-1.789-1.979-1.094-3.473
			c0.627-1.343,2.471-2.42,3.629-2.124c0.629,0.16,0.943,0.575,1.012,1.202c0-0.001-0.115-0.005-0.115-0.005
			c-0.199,0.021-0.396,0.043-0.596,0.063c-0.268-0.56-0.643-0.677-1.26-0.486c-2.186,0.674-2.783,2.454-1.459,4.491
			C192.798,61.747,192.759,61.858,192.72,61.968z"/>
		<path fill-rule="evenodd" clip-rule="evenodd" fill="#6A686D" d="M196.958,61.281c0.75,0.89,1.641,1.719,1.32,3.069
			c-0.949,0.335-1.891,0.529-2.768-0.189c0.125-0.079,0.25-0.158,0.375-0.237c0.211-0.029,0.422-0.059,0.635-0.089
			c0.736,0.037,1.6,0.188,0.779-1.005c-0.311-0.449-0.563-0.939-0.84-1.411C196.626,61.372,196.792,61.326,196.958,61.281z"/>
		<path fill-rule="evenodd" clip-rule="evenodd" fill="#29282A" d="M195.886,63.923c-0.125,0.079-0.25,0.158-0.375,0.237
			c-1.145-0.46-2.004-1.279-2.791-2.193c0.039-0.109,0.078-0.22,0.115-0.331C194.029,62.161,195.036,62.939,195.886,63.923z"/>
		<path fill-rule="evenodd" clip-rule="evenodd" fill="#EAE8EC" d="M71.771,50.759c-2.163,0-4.324-0.001-6.485,0.001
			c-0.713,0-1.36-0.033-1.306-1.043c0.052-0.967,0.74-0.828,1.335-0.83c4.374-0.009,8.747-0.001,13.121-0.016
			c0.683-0.001,1.196,0.02,1.181,0.95c-0.015,0.921-0.526,0.94-1.206,0.934c-2.213-0.021-4.427-0.008-6.64-0.008
			C71.771,50.751,71.771,50.755,71.771,50.759z"/>
		<path fill-rule="evenodd" clip-rule="evenodd" fill="#C7C2C8" d="M70.198,48.068c2.289-1.482,4.625-1.494,6.969,0
			C74.844,48.068,72.521,48.068,70.198,48.068z"/>
		<path fill-rule="evenodd" clip-rule="evenodd" fill="#C7C2C8" d="M77.268,51.503c-1.885,1.587-5.198,1.594-7.229,0
			C72.479,51.503,74.798,51.503,77.268,51.503z"/>
		<path fill-rule="evenodd" clip-rule="evenodd" fill="#EAE8EC" d="M45.734,63.525c0.072,1.051-0.494,1.486-1.473,1.532
			c-1.25,0.061-2.196-0.509-2.853-1.509c-0.475-0.72-0.844-1.507-1.019-2.384c-0.172-0.863-0.531-1.767,0.361-2.393
			c0.926-0.649,1.878-0.295,2.746,0.224C44.646,59.683,45.748,61.958,45.734,63.525z"/>
		<path fill-rule="evenodd" clip-rule="evenodd" fill="#EAE8EC" d="M22.76,57.948c1.142-0.04,2.104-0.117,2.838,0.743
			c0.329,0.386,0.451,0.813,0.293,1.268c-0.24,0.696-0.887,0.558-1.423,0.591c-0.461,0.026-0.915,0.036-1.068-0.588
			C23.244,59.326,23.007,58.712,22.76,57.948z"/>
		<path fill-rule="evenodd" clip-rule="evenodd" fill="#EAE8EC" d="M14.73,49.179c0.246,1.413-0.474,1.661-1.72,1.629
			c-2.957-0.078-5.918-0.024-8.878-0.023c-1.343-0.012-2.687-0.022-4.03-0.034c-0.625-0.005-0.964-0.308-0.959-0.946
			c0.005-0.637,0.331-0.927,0.969-0.924c4.753,0.02,9.507,0.028,14.26,0.055C14.492,48.935,14.611,49.094,14.73,49.179z"/>
		<path fill-rule="evenodd" clip-rule="evenodd" fill="#C7C2C8" d="M5.324,48.047c2.333-1.517,4.673-1.406,7.018,0
			C10.003,48.047,7.664,48.047,5.324,48.047z"/>
		<path fill-rule="evenodd" clip-rule="evenodd" fill="#C7C2C8" d="M10.635,52.576c-1.444,0.057-2.896,0.333-4.325-0.131
			c-0.373-0.255-0.746-0.509-1.386-0.947c2.677,0,5.039,0,7.496,0C12.037,52.312,11.194,52.216,10.635,52.576z"/>
		<path fill-rule="evenodd" clip-rule="evenodd" fill="#3E3E3E" d="M196.958,61.281c-0.166,0.046-0.332,0.092-0.498,0.138
			c0-0.001-0.053-0.01-0.053-0.01c-0.678-1.17-1.475-2.313-0.852-3.776c0.199-0.021,0.396-0.042,0.596-0.063
			c0.018,0.216,0.035,0.431,0.053,0.646c-0.074,0.486-0.08,0.96,0.256,1.371C196.626,60.152,196.792,60.715,196.958,61.281z"/>
		<path fill-rule="evenodd" clip-rule="evenodd" fill="#C6E6E7" d="M196.46,59.586c-0.336-0.411-0.33-0.885-0.256-1.371
			C196.679,58.6,196.409,59.122,196.46,59.586z"/>
		<path fill-rule="evenodd" clip-rule="evenodd" fill="#E39B29" d="M195.556,57.632c-0.623,1.464,0.174,2.606,0.85,3.775
			c0.037,0.809,0.074,1.618,0.115,2.427c-0.213,0.03-0.424,0.06-0.635,0.089c-0.85-0.984-1.857-1.762-3.051-2.287
			c-1.322-2.036-0.725-3.816,1.461-4.49C194.913,56.955,195.288,57.073,195.556,57.632z"/>
		<path fill-rule="evenodd" clip-rule="evenodd" fill="#AAA6AA" d="M196.521,63.834c-0.041-0.809-0.078-1.618-0.115-2.427
			c0.002,0.001,0.055,0.01,0.055,0.011c0.277,0.472,0.529,0.962,0.84,1.411C198.12,64.022,197.257,63.871,196.521,63.834z"/>
		<path fill-rule="evenodd" clip-rule="evenodd" fill="#141415" d="M19.776,89.178c-0.364,0.033-0.739,0.119-1.037-0.197
			c-3.354-0.568-4.772-3.205-6.225-5.813c-1.937-3.477-3.887-6.947-5.832-10.42c-0.012-0.52-0.581-1.348-1.098-2.123
			c-0.076-0.436-0.35-0.668-0.7-1.061c-2.372,0.07-3.451-1.74-4.717-3.264c-0.254-0.308-0.477-0.95-0.956-1.609
			c-0.08-0.313-0.161-0.627-0.24-0.939c-2.306,1.09-3.854-0.903-5.702-1.523c-1.383-0.464-3.081-0.608-4.013-2.072
			c-0.058-0.09-0.288-0.084-0.438-0.094c-4.925-0.276-9.892-0.633-14.688,0.719c-2.422,0.682-4.963,1.295-7.092,2.806
			c-0.836,0.593-1.744,0.817-2.756,0.815c-7.849-0.011-15.697,0-23.546-0.008c-2.466-0.004-3.69-1.021-4.28-3.467
			c-0.167-0.697-0.437-1.375-0.55-2.08c-0.106-0.663-0.555-0.643-1.016-0.687c-3.169,0.001-6.337,0.003-9.507,0.005
			c-1.004,0.024-2.012,0.111-3.012,0.058c-0.913-0.048-1.169,0.342-1.035,1.157c0.083,0.119,0.165,0.238,0.247,0.358
			c1.442,0.274,2.897,0.343,4.365,0.322c2.374-0.032,4.751,0.017,7.125-0.018c1.22-0.019,2.083,0.323,2.413,1.637
			c0.283,1.128,0.946,2.049,1.932,2.699c0.971,0.641,0.771,1.01-0.213,1.412c-1.059,0.433-2.117,0.673-3.26,0.823
			c-2.211,0.291-4.416,0.242-6.627,0.264c-0.477,0.004-0.963-0.023-1.037,0.633c0.008,0.098,0.01,0.195,0.008,0.295h0.001
			c0.303,0.105,0.605,0.211,0.909,0.318c1.421-0.504,2.93-0.439,4.395-0.594c3.117-0.33,6.352-0.104,8.948-2.393
			c0.188-0.165,0.593-0.115,0.897-0.115c4.697-0.007,9.394-0.006,14.09-0.003c0.51,0,1.081-0.093,1.178,0.654
			c0.569-0.063,0.823-0.857,1.51-0.647c1.188-0.003,2.374-0.015,3.561-0.003c0.392,0.004,0.883-0.12,1.046,0.412
			c0.142,0.462,0.095,0.923-0.27,1.296c-0.216,0.223-0.424,0.453-0.65,0.664c-1.887,1.76-3.543,3.729-5.221,5.68
			c-0.964,1.123-1.656,2.371-1.838,3.838c-0.127,1.021-0.633,1.459-1.623,1.443c-1.368-0.02-2.822,0.289-3.764-1.16
			c-0.406-0.625-1.495-0.148-1.778-1.031c-0.469,0.297-0.917,0.609-0.934,1.246c0.372,0.045,0.742,0.131,0.817,0.561
			c0.044,0.248-0.189,0.371-0.401,0.322c-0.487-0.111-0.366-0.545-0.416-0.883c-0.511,0.213-1.021,0.426-1.532,0.639l-0.001,0.002
			c-0.026,0.596-0.351,0.891-0.932,0.93l0.002-0.002c-0.208,0.215-0.415,0.43-0.623,0.645c-0.32,0.875-0.171,1.232,0.913,1.254
			c1.676,0.035,3.4,0.137,4.994,0.592c0.732,0.209,1.232,0.623,2.066,0.232c1.155-0.541,1.952-0.02,1.924,1.266
			c-0.028,1.281,0.171,2.682-1.132,3.615c-0.564,0.404-0.258,0.771,0.205,1.07c0.319,0.207,0.958,0.246,0.809,0.768
			c-0.233,0.814-0.995,1.297-1.583,1.842c-0.572,0.527-0.821-0.357-1.244-0.545c-0.405-0.182-0.707-0.664-1.239-0.377
			c-0.706,0.385-0.11,0.91-0.131,1.367c0.385,0.123,0.762,0.314,1.154,0.357c2.704,0.305,5.406,0.682,8.12,0.814
			c0.42,0.02,0.734,0.09,0.982,0.211c0.332-0.254,0.734-0.438,1.208-0.527c-0.198-1.348-0.276-2.74-0.231-4.178
			c0.145-4.584,1.782-8.648,4.565-12.207c4.572-5.844,10.746-8.686,18.068-8.219c10.511,0.67,18.205,7.955,20.086,18.408
			c0.063,0.348-0.008,0.719-0.018,1.08c0.161,2.484,0.084,4.943-0.517,7.354c0.295,0.182,0.571,0.396,0.825,0.652
			c0.285-0.256,0.666-0.352,1.236-0.256c0.531,0.004,1.077-0.162,1.577,0.15c5.282,0.201,10.563,0.143,15.846,0.027
			c0.765-1.68-0.528-1.74-1.511-1.719c-3.451,0.074-6.909-0.311-10.356,0.25c-1.802,0.293-1.959-0.234-1.91-2.061
			c0.088-3.381,0.764-6.834-1.03-10.096c-0.616-1.119-0.668-2.568-0.883-3.883c-0.067-0.412,0.035-1.033,0.513-1.188
			c0.633-0.205,0.776,0.439,0.86,0.846c0.292,1.436,1.144,2.641,1.588,3.988c0.563,1.707,2.03,3.049,1.958,5.006
			c-0.014,0.377,0.43,0.535,0.802,0.619c1.497,0.346,2.44,1.262,2.798,2.76c0.101,0.424,0.3,0.971,0.726,0.865
			c1.741-0.432,3.224,0.086,4.672,0.977c0.225,0.139,0.608,0.025,0.919,0.025c0.724,0.002,1.511-0.184,2.159,0.037
			c1.737,0.596,2.562-0.428,3.358-1.629C24.458,89.061,22.117,89.041,19.776,89.178z"/>
		<g>
			<path fill-rule="evenodd" clip-rule="evenodd" fill="#29282A" d="M105.944,46.531c-0.013-0.012-0.025-0.024-0.038-0.037
				C105.806,46.499,105.81,46.511,105.944,46.531z"/>
			<path fill-rule="evenodd" clip-rule="evenodd" fill="#29282A" d="M121.559,47.359c-0.226-0.231-0.948-0.529-1.877-0.835
				l0.221-0.406l-2.481-2.068l-0.981,0.168l-2.017,0.66l0.07,0.282c-0.438-0.091-0.792-0.154-1.001-0.179
				c-8.781-1.021-8.589,0.579-7.587,1.514c0.895-0.036,10.249,0.534,10.506,0.563c0.337-0.018,1.556,0.08,2.738,0.169l0.131,0.032
				l0.012-0.021C120.28,47.312,121.217,47.376,121.559,47.359z"/>
		</g>
	</g>
</g>
</svg>
