<?xml version="1.0" encoding="utf-8"?>
<!-- Generator: Adobe Illustrator 16.0.0, SVG Export Plug-In . SVG Version: 6.00 Build 0)  -->
<!DOCTYPE svg PUBLIC "-//W3C//DTD SVG 1.1//EN" "http://www.w3.org/Graphics/SVG/1.1/DTD/svg11.dtd">
<svg version="1.1" id="Layer_1" xmlns="http://www.w3.org/2000/svg" xmlns:xlink="http://www.w3.org/1999/xlink" x="0px" y="0px"
	 width="364.397px" height="117.104px" viewBox="0 0 364.397 117.104" enable-background="new 0 0 364.397 117.104"
	 xml:space="preserve">
<path fill-rule="evenodd" clip-rule="evenodd" fill="#AAAAAA" d="M7.291,70.394c-1.085,0.259-2.149,0.6-3.075,1.228
	C3.18,72.322,2.14,73.15,2.193,74.526c0.057,1.509,1.174,2.388,2.399,3.05c0.807,0.435,1.756,0.596,2.449,1.258
	c0.589-0.428,1.198-0.118,1.797-0.039c2.19,0.291,4.348,0.128,6.442-0.552c1.92-0.624,3.869-1.359,4.169-3.727
	c0.195-1.547-1.564-3.048-4.241-3.863C12.594,69.857,9.951,69.847,7.291,70.394z"/>
<path fill-rule="evenodd" clip-rule="evenodd" fill="#D23D32" d="M6.915,55.429c-0.652,2.75-0.204,5.534-0.226,8.303
	c-0.001,0.127,0.356,0.257,0.547,0.386c0.273-0.141,0.547-0.281,0.821-0.422c1.804-0.925,3.195-2.137,2.952-4.417
	C10.786,57.188,9.528,56.023,6.915,55.429z"/>
<path fill-rule="evenodd" clip-rule="evenodd" fill="#96A6A6" d="M8.802,85.683c0.643,0.517,1.408,0.379,2.138,0.381
	c4.509,0.008,9.017,0.001,13.525,0c0.013-0.138,0.024-0.274,0.037-0.411C19.269,85.663,14.036,85.673,8.802,85.683z"/>
<path fill-rule="evenodd" clip-rule="evenodd" fill="#858585" d="M35.299,107.36c0.143,0.107,0.285,0.214,0.429,0.321
	C35.584,107.574,35.442,107.468,35.299,107.36z"/>
<polygon opacity="0.3" fill="#DBDB83" points="260.834,32.814 333.701,6.682 333.701,58.947 333.701,111.213 260.834,85.08 
	184.236,58.947 "/>
<path opacity="0.3" fill="#DBDB83" d="M361.367,58.764c0,22.028-11.004,41.313-27.459,51.934V61.576V6.84
	C350.363,17.461,361.367,36.738,361.367,58.764z"/>
<path fill-rule="evenodd" clip-rule="evenodd" fill="#324F59" d="M103.33,43.607c14.424-0.005,28.849-0.009,43.272-0.013
	c0.103-0.068,0.215-0.094,0.337-0.077c0.421-0.431,9.185-3.127,9.299-3.843c-0.026-10.47-5.139-10.761-5.164-21.23
	c-0.479-0.986-7.053-3.442-8.033-3.442c-13.908,0.004-25.099-5.385-39.007-5.369c-1.922,0.002-41.894,0.611-41.896,2.5
	c-9.754,8.033-19.509,10.901-18.935,32.705c-0.007,1.309,58.703-1.839,59.784-1.274C103.108,43.531,103.222,43.547,103.33,43.607z"
	/>
<path fill-rule="evenodd" clip-rule="evenodd" fill="#C6433C" d="M191.506,85.622c-1.119-6.263-4.041-11.431-9.315-15.115
	c-12.649-8.833-30.249-2.163-33.903,12.828c-0.133,0.542-0.275,1.082-0.413,1.623c-26.712-0.001-53.424-0.001-80.137-0.001
	c-1.059-4.848-3.113-9.176-6.898-12.481c-6.354-5.549-13.678-7.242-21.661-4.503c-7.885,2.705-12.688,8.382-14.379,16.605
	c-0.074,0.363-0.196,0.717-0.297,1.074c-5.233,0.011-10.467,0.021-15.7,0.03c-1.286-0.5-1.656-1.473-1.623-2.795
	c0.035-1.348,0.194-2.713-0.138-4.054c0.589-0.428,1.198-0.118,1.797-0.039c2.19,0.291,4.348,0.128,6.442-0.552
	c1.92-0.624,3.869-1.359,4.169-3.727c0.195-1.547-1.564-3.048-4.241-3.863c-2.614-0.796-5.258-0.807-7.918-0.26
	c-0.018-2.093-0.036-4.185-0.055-6.276c0.273-0.141,0.547-0.281,0.821-0.422c1.804-0.925,3.195-2.137,2.952-4.417
	c-0.224-2.09-1.481-3.255-4.095-3.85c0.06-0.114,0.12-0.228,0.182-0.343c0.044-1.837,0.108-3.674,0.125-5.51
	c0.027-2.729,0.288-3.002,3.091-3.069c0.245-0.006,0.489-0.036,0.733-0.056c1.494,0.001,2.988,0.003,4.482,0.004
	c2.113,0.002,4.226,0.004,6.338,0.006c2.984,0.002,5.968,0.004,8.952,0.005c0.106,0.043,0.217,0.059,0.332,0.046
	c0.146,0.006,0.294,0.013,0.441,0.019c0.424-0.607,0.333-1.305,0.334-1.981C30.581-4.506,124.68,0.084,149.926,14.428
	c5.737,3.443,9.181,23.525,20.082,26.394c16.641,2.87,20.083,4.017,31.855,5.714c2.484,0.358,3.021,0.523,3.039,3.069
	c0.008,0.994-0.02,1.988-0.029,2.982c-2.914,1.252-4.233,3.207-4.123,6.107c0.104,2.738,1.49,4.573,4.14,5.483
	c-0.008,2.034-0.016,4.068-0.021,6.104c-3.063-0.481-6.075-0.391-8.94,0.919c-1.383,0.632-2.746,1.473-2.793,3.184
	c-0.053,1.825,1.373,2.695,2.811,3.356c2.86,1.315,5.881,1.379,8.94,0.937c0.008,1.042-0.002,2.085,0.023,3.127
	c0.033,1.427,0.105,2.855-1.244,3.828C199.612,85.629,195.559,85.626,191.506,85.622z M146.483,21.313
	c-12.622-5.164-28.55-9.196-42.459-9.181c-1.922,0.003-1.981,18.047-2.031,27.608c-0.007,1.308,0.487,2.11,1.569,2.675
	c0.022,0.085,0.044,0.17,0.067,0.255c0.092-0.07,0.183-0.142,0.274-0.211c14.424-0.005,28.849-0.009,43.272-0.014
	c0.112-0.025,0.225-0.05,0.335-0.076c0.423-0.432,1.116-0.608,1.231-1.325c0.099-0.034,0.19-0.082,0.275-0.142
	c0.797-0.38,4.35-2.414,4.351-2.95C153.398,28.834,147.391,21.685,146.483,21.313z M48.287,39.741
	c-0.007,1.308,0.488,2.11,1.57,2.675c0.022,0.085,0.045,0.17,0.066,0.255c0.092-0.07,0.184-0.142,0.274-0.211
	c14.425-0.005,28.849-0.009,43.273-0.014c0.112-0.025,0.224-0.05,0.336-0.076c0.421-0.432,1.116-0.608,1.229-1.325
	c0.099-0.034,0.19-0.082,0.276-0.142c0.796-0.38,0.381-1.095,0.383-1.632c0.029-9.118-0.838-17.446-0.853-26.564
	C94.842,11.932,46.073,4.674,48.287,39.741z"/>
<path fill-rule="evenodd" clip-rule="evenodd" fill="#AAAAAA" d="M204.869,70.281c-3.063-0.481-6.075-0.391-8.94,0.919
	c-1.383,0.632-2.746,1.473-2.793,3.184c-0.053,1.825,1.373,2.695,2.811,3.356c2.86,1.315,5.881,1.379,8.94,0.937
	c1.291-0.421,2.613-0.749,3.762-1.531c2.33-1.588,2.328-3.764-0.012-5.364C207.492,70.999,206.178,70.647,204.869,70.281z"/>
<path fill-rule="evenodd" clip-rule="evenodd" fill="#DBDB83" d="M204.873,52.587c-2.914,1.252-4.233,3.207-4.123,6.107
	c0.104,2.738,1.49,4.573,4.14,5.483C205.16,60.313,205.186,56.449,204.873,52.587z"/>
<path fill-rule="evenodd" clip-rule="evenodd" fill="#D23D32" d="M67.738,84.957c-0.026,0.12-0.015,0.236,0.033,0.351
	c26.691-0.001,53.381-0.003,80.072-0.004c0.044-0.111,0.055-0.228,0.031-0.346C121.163,84.957,94.451,84.957,67.738,84.957z"/>
<path fill-rule="evenodd" clip-rule="evenodd" fill="#D23D32" d="M50.198,42.46c-0.107-0.061-0.222-0.076-0.341-0.044
	c0.022,0.085,0.045,0.17,0.066,0.255C50.015,42.601,50.107,42.529,50.198,42.46z"/>
<path fill-rule="evenodd" clip-rule="evenodd" fill="#D23D32" d="M103.904,42.46c-0.107-0.061-0.223-0.076-0.342-0.044
	c0.022,0.085,0.044,0.17,0.067,0.255C103.721,42.601,103.812,42.529,103.904,42.46z"/>
<path fill-rule="evenodd" clip-rule="evenodd" fill="#D23D32" d="M93.807,42.37c-0.122-0.017-0.234,0.009-0.336,0.076
	C93.583,42.421,93.695,42.396,93.807,42.37z"/>
<path fill-rule="evenodd" clip-rule="evenodd" fill="#D23D32" d="M147.511,42.37c-0.12-0.017-0.232,0.009-0.335,0.076
	C147.289,42.421,147.401,42.396,147.511,42.37z"/>
<path fill-rule="evenodd" clip-rule="evenodd" fill="#808080" d="M53.184,109.212c-0.26,0.095-0.519,0.189-0.779,0.284
	C52.844,109.894,53.056,109.668,53.184,109.212z"/>
<path fill-rule="evenodd" clip-rule="evenodd" fill="#96A6A6" d="M68.169,86.407c0.75-0.389,1.563-0.339,2.37-0.339
	c24.761,0,49.521,0.021,74.282-0.04c1.934-0.005,2.541,0.626,2.386,2.467c-0.079,0.933-0.369,2.015,0.564,2.787
	c-0.216-1.863-0.188-3.724,0.039-5.584c-26.673-0.001-53.344-0.001-80.015-0.003C67.92,85.933,68.045,86.17,68.169,86.407z"/>
<path fill-rule="evenodd" clip-rule="evenodd" fill="#BE5551" d="M67.796,85.695c26.671,0.002,53.342,0.002,80.015,0.003
	c0.011-0.131,0.021-0.263,0.032-0.395c-26.691,0.001-53.381,0.003-80.072,0.004C67.78,85.437,67.788,85.566,67.796,85.695z"/>
</svg>
